<svg width="23" height="23" viewBox="0 0 23 23" version="1.1" xmlns="http://www.w3.org/2000/svg" xmlns:xlink="http://www.w3.org/1999/xlink"><title>glyph-5</title><defs><path d="M22 12.46V9.428l-2.47-.337c-.224-1.01-.56-2.02-1.122-2.919l1.46-1.908-2.133-2.132-1.796 1.347c-.898-.674-2.02-1.123-3.143-1.347L12.57 0h-3.03l-.337 2.02A9.12 9.12 0 0 0 5.95 3.367L4.265 2.133 2.133 4.265 3.48 6.061a9.681 9.681 0 0 0-1.235 3.143L0 9.541v3.03l2.47.337c.224 1.01.673 1.908 1.234 2.806l-1.571 2.02 2.132 2.133 2.133-1.683c.786.449 1.684.785 2.582 1.01L9.316 22h3.03l.338-2.806c.898-.225 1.796-.561 2.581-1.01l2.245 1.683 2.133-2.132-1.684-2.133c.561-.786.898-1.684 1.123-2.582L22 12.46zm-11 2.02a3.785 3.785 0 0 1-3.816-3.817A3.785 3.785 0 0 1 11 6.847a3.785 3.785 0 0 1 3.816 3.816A3.785 3.785 0 0 1 11 14.48z" id="a"/></defs><g stroke="none" stroke-width="1" fill="none" fill-rule="evenodd"><g><g><g><g><g transform="translate(.188 .438)"><mask id="b" fill="#fff"><use xlink:href="#a"/></mask><use fill="#6F6F6F" xlink:href="#a"/><g mask="url(#b)" fill="#4C4C4C"><g><path d="M-89-64h200V86H-89z"/></g></g></g></g></g></g></g></g></svg>