<svg width="319" height="280" viewBox="0 0 319 280" version="1.1" xmlns="http://www.w3.org/2000/svg" xmlns:xlink="http://www.w3.org/1999/xlink"><title>img-grading-ribbon</title><defs><path id="b" d="M0 0h295.833l-11.798 57.876L295.833 115H0z"/><filter x="-8.1%" y="-17.4%" width="116.2%" height="141.7%" filterUnits="objectBoundingBox" id="a"><feOffset dx="0" dy="4" in="SourceAlpha" result="shadowOffsetOuter1"/><feGaussianBlur stdDeviation="6" in="shadowOffsetOuter1" result="shadowBlurOuter1"/><feColorMatrix values="0 0 0 0 0 0 0 0 0 0 0 0 0 0 0 0 0 0 0.159590127 0" type="matrix" in="shadowBlurOuter1" result="shadowMatrixOuter1"/><feOffset dx="0" dy="0" in="SourceAlpha" result="shadowOffsetOuter2"/><feGaussianBlur stdDeviation="2" in="shadowOffsetOuter2" result="shadowBlurOuter2"/><feColorMatrix values="0 0 0 0 0 0 0 0 0 0 0 0 0 0 0 0 0 0 0.116649683 0" type="matrix" in="shadowBlurOuter2" result="shadowMatrixOuter2"/><feMerge><feMergeNode in="shadowMatrixOuter1"/><feMergeNode in="shadowMatrixOuter2"/></feMerge></filter><path id="d" d="M0 0h295.833l-11.798 57.876L295.833 115H0z"/><filter x="-8.1%" y="-17.4%" width="116.2%" height="141.7%" filterUnits="objectBoundingBox" id="c"><feOffset dx="0" dy="4" in="SourceAlpha" result="shadowOffsetOuter1"/><feGaussianBlur stdDeviation="6" in="shadowOffsetOuter1" result="shadowBlurOuter1"/><feColorMatrix values="0 0 0 0 0 0 0 0 0 0 0 0 0 0 0 0 0 0 0.159590127 0" type="matrix" in="shadowBlurOuter1" result="shadowMatrixOuter1"/><feOffset dx="0" dy="0" in="SourceAlpha" result="shadowOffsetOuter2"/><feGaussianBlur stdDeviation="2" in="shadowOffsetOuter2" result="shadowBlurOuter2"/><feColorMatrix values="0 0 0 0 0 0 0 0 0 0 0 0 0 0 0 0 0 0 0.116649683 0" type="matrix" in="shadowBlurOuter2" result="shadowMatrixOuter2"/><feMerge><feMergeNode in="shadowMatrixOuter1"/><feMergeNode in="shadowMatrixOuter2"/></feMerge></filter></defs><g stroke="none" stroke-width="1" fill="none" fill-rule="evenodd"><g><g><g><g><g><g transform="translate(12 8)"><use fill="#000" fill-opacity="1" filter="url(#a)" xlink:href="#b"/><use fill="#BFF199" fill-rule="evenodd" xlink:href="#b"/></g></g><g><path d="M38.182 89.377v16.245" stroke="#7AC70C" stroke-width="2" stroke-linecap="square"/><path d="M47.818 88H38v7.5h8.273v2.85h8.636v-7.5h-7.09V88z" stroke="#7AC70C" stroke-width="2"/><path d="M65.362 102.37v-9.39c0-.405.21-.63.615-.63h2.88c1.05 0 1.575.09 2.025.285 1.08.45 1.785 1.47 1.785 2.91 0 1.26-.66 2.46-1.77 2.91v.03s.135.165.345.555l1.755 3.21c.255.435.06.75-.435.75h-.81c-.345 0-.57-.135-.735-.435l-1.875-3.54h-1.86v3.345c0 .42-.21.63-.615.63h-.69c-.405 0-.615-.21-.615-.63zm1.92-5.025h1.74c1.035 0 1.68-.645 1.68-1.695 0-.675-.255-1.215-.84-1.455-.255-.12-.585-.18-1.155-.18h-1.425v3.33zm8.07 5.025c0 .42.21.63.616.63h5.37c.405 0 .63-.21.63-.63v-.42c0-.405-.226-.615-.63-.615h-4.065V98.47h2.97c.405 0 .63-.21.63-.63v-.42c0-.405-.226-.615-.63-.615h-2.97v-2.79h3.825c.404 0 .63-.21.63-.615v-.42c0-.405-.226-.63-.63-.63h-5.13c-.406 0-.616.225-.616.63v9.39zm8.956 0v-9.39c0-.405.21-.63.614-.63h3.48c1.996 0 3.39 1.395 3.39 3.465s-1.394 3.51-3.39 3.51h-2.174v3.045c0 .42-.21.63-.615.63h-.69c-.405 0-.615-.21-.615-.63zm1.92-4.725h1.815c1.14 0 1.785-.72 1.785-1.83 0-1.095-.645-1.8-1.755-1.8h-1.845v3.63zm7.11-.045c0-3.045 2.28-5.43 5.505-5.43 3.224 0 5.504 2.385 5.504 5.43 0 3.135-2.28 5.58-5.504 5.58-3.226 0-5.506-2.445-5.506-5.58zm1.995 0c0 2.16 1.47 3.81 3.51 3.81s3.51-1.65 3.51-3.81c0-2.07-1.47-3.66-3.51-3.66s-3.51 1.59-3.51 3.66zm11.445 4.77v-9.39c0-.405.21-.63.614-.63h2.88c1.05 0 1.575.09 2.025.285 1.08.45 1.785 1.47 1.785 2.91 0 1.26-.66 2.46-1.77 2.91v.03s.136.165.346.555l1.754 3.21c.255.435.06.75-.434.75h-.81c-.346 0-.57-.135-.736-.435l-1.874-3.54h-1.86v3.345c0 .42-.21.63-.615.63h-.69c-.406 0-.615-.21-.615-.63zm1.92-5.025h1.74c1.034 0 1.68-.645 1.68-1.695 0-.675-.255-1.215-.84-1.455-.256-.12-.586-.18-1.156-.18h-1.424v3.33zm10.08 5.025c0 .42.21.63.614.63h.675c.42 0 .63-.21.63-.63v-8.355h2.865c.406 0 .615-.21.615-.615v-.42c0-.405-.21-.63-.615-.63h-7.65c-.42 0-.63.225-.63.63v.42c0 .405.21.615.63.615h2.865v8.355z" fill="#7AC70C"/></g><path d="M37.876 49.908v-6.63l-5.408-9.438c-.442-.728-.104-1.3.728-1.3h1.456c.598 0 .988.26 1.248.806l2.496 4.628a43.44 43.44 0 0 1 1.118 2.47h.052s.546-1.326 1.118-2.47l2.496-4.628c.26-.546.65-.806 1.248-.806h1.456c.858 0 1.17.572.754 1.3l-5.434 9.438v6.63c0 .728-.364 1.092-1.066 1.092h-1.17c-.728 0-1.092-.364-1.092-1.092zm8.606-5.538c0-4.056 3.25-6.942 7.28-6.942s7.306 2.886 7.306 6.942c0 4.082-3.276 6.942-7.306 6.942s-7.28-2.86-7.28-6.942zm3.354 0c0 2.47 1.768 4.134 3.926 4.134 2.158 0 3.952-1.664 3.952-4.134 0-2.444-1.794-4.134-3.952-4.134s-3.926 1.69-3.926 4.134zm22.39 4.665l.282.478v-.385c0-.312.052-.598.052-.598h-.052a3.88 3.88 0 0 1-.282.505zm.282.478l-.282-.478c-.777 1.18-2.339 2.277-4.32 2.277-2.834 0-4.602-1.43-4.602-5.044v-7.436c0-.702.39-1.092 1.092-1.092h1.118c.728 0 1.092.39 1.092 1.092v6.76c0 1.612.416 2.704 2.054 2.704 2.392 0 3.718-2.106 3.718-4.472v-4.992c0-.702.364-1.092 1.092-1.092h1.118c.702 0 1.092.39 1.092 1.092v11.076c0 .728-.39 1.092-1.092 1.092h-1.014c-.702 0-1.066-.364-1.066-1.092v-.395zm11.908-2.179c0-3.874 4.784-4.524 7.748-4.524h.546v-.312c0-1.742-1.118-2.34-2.47-2.34-1.118 0-2.132.416-2.756.754-.65.286-1.144.182-1.456-.442l-.26-.494c-.312-.598-.208-1.118.416-1.456.858-.442 2.366-1.092 4.342-1.092 3.432 0 5.486 1.924 5.486 5.278v7.202c0 .728-.364 1.092-1.092 1.092h-.884c-.702 0-1.066-.364-1.066-1.092v-.52c0-.364.052-.572.052-.572h-.052s-1.248 2.496-4.16 2.496c-2.418 0-4.394-1.56-4.394-3.978zm3.276-.286c0 .884.676 1.742 2.002 1.742 1.846 0 3.042-1.872 3.042-3.484v-.494h-.546c-1.664 0-4.498.26-4.498 2.236zm11.388 2.86c0 .728.364 1.092 1.066 1.092h1.144c.702 0 1.066-.364 1.066-1.092v-4.264c0-2.418 1.17-4.81 3.588-4.81.702 0 1.118-.39 1.118-1.092v-1.014c0-.728-.26-1.092-.988-1.092-1.872 0-3.328 1.768-3.848 3.354h-.052s.078-.416.078-.91v-1.248c0-.702-.39-1.092-1.092-1.092h-1.014c-.702 0-1.066.39-1.066 1.092v11.076zm8.528-5.538c0-4.082 2.756-6.942 6.734-6.942 3.77 0 5.876 2.678 5.876 6.318 0 .572-.494 1.118-1.144 1.118h-8.086c.208 2.392 1.976 3.64 3.978 3.64 1.222 0 2.236-.468 2.86-.858.65-.312 1.118-.234 1.456.364l.312.52c.312.598.208 1.118-.364 1.456a8.38 8.38 0 0 1-4.498 1.326c-4.394 0-7.124-3.172-7.124-6.942zm3.458-1.508h5.876c-.052-1.846-1.17-2.938-2.678-2.938-1.69 0-2.886 1.17-3.198 2.938zm17.212 1.508c0 3.848 2.808 6.942 7.202 6.942 2.288 0 3.9-.936 4.706-1.534.52-.364.598-.884.286-1.456l-.26-.494c-.338-.624-.832-.702-1.482-.338-.624.442-1.664 1.014-2.964 1.014-2.548 0-4.134-1.924-4.134-4.16 0-2.262 1.586-4.108 4.03-4.108 1.144 0 2.028.442 2.574.806.624.312 1.066.312 1.456-.286l.338-.52c.364-.572.338-1.118-.208-1.482-.78-.546-2.21-1.326-4.342-1.326-4.394 0-7.202 3.172-7.202 6.942zm13.624 0c0-4.056 3.25-6.942 7.28-6.942s7.306 2.886 7.306 6.942c0 4.082-3.276 6.942-7.306 6.942s-7.28-2.86-7.28-6.942zm3.354 0c0 2.47 1.768 4.134 3.926 4.134 2.158 0 3.952-1.664 3.952-4.134 0-2.444-1.794-4.134-3.952-4.134s-3.926 1.69-3.926 4.134zm13.65 5.538c0 .728.364 1.092 1.066 1.092h1.144c.702 0 1.066-.364 1.066-1.092v-4.264c0-2.418 1.17-4.81 3.588-4.81.702 0 1.118-.39 1.118-1.092v-1.014c0-.728-.26-1.092-.988-1.092-1.872 0-3.328 1.768-3.848 3.354H162s.078-.416.078-.91v-1.248c0-.702-.39-1.092-1.092-1.092h-1.014c-.702 0-1.066.39-1.066 1.092v11.076zm9.75 0c0 .728.364 1.092 1.066 1.092h1.144c.702 0 1.066-.364 1.066-1.092v-4.264c0-2.418 1.17-4.81 3.588-4.81.702 0 1.118-.39 1.118-1.092v-1.014c0-.728-.26-1.092-.988-1.092-1.872 0-3.328 1.768-3.848 3.354h-.052s.078-.416.078-.91v-1.248c0-.702-.39-1.092-1.092-1.092h-1.014c-.702 0-1.066.39-1.066 1.092v11.076zm8.528-5.538c0-4.082 2.756-6.942 6.734-6.942 3.77 0 5.876 2.678 5.876 6.318 0 .572-.494 1.118-1.144 1.118h-8.086c.208 2.392 1.976 3.64 3.978 3.64 1.222 0 2.236-.468 2.86-.858.65-.312 1.118-.234 1.456.364l.312.52c.312.598.208 1.118-.364 1.456a8.38 8.38 0 0 1-4.498 1.326c-4.394 0-7.124-3.172-7.124-6.942zm3.458-1.508h5.876c-.052-1.846-1.17-2.938-2.678-2.938-1.69 0-2.886 1.17-3.198 2.938zm10.712 1.508c0 3.848 2.808 6.942 7.202 6.942 2.288 0 3.9-.936 4.706-1.534.52-.364.598-.884.286-1.456l-.26-.494c-.338-.624-.832-.702-1.482-.338-.624.442-1.664 1.014-2.964 1.014-2.548 0-4.134-1.924-4.134-4.16 0-2.262 1.586-4.108 4.03-4.108 1.144 0 2.028.442 2.574.806.624.312 1.066.312 1.456-.286l.338-.52c.364-.572.338-1.118-.208-1.482-.78-.546-2.21-1.326-4.342-1.326-4.394 0-7.202 3.172-7.202 6.942zm15.34 1.898c0 3.588 2.808 4.862 5.174 4.862.91 0 1.352-.312 1.352-1.092v-.806c0-.728-.286-.988-1.092-1.066-.91-.104-2.132-.494-2.132-2.47v-5.148h1.95c.676 0 1.066-.364 1.066-1.092v-.442c0-.702-.39-1.092-1.092-1.092h-1.924v-2.704c0-.702-.39-1.092-1.092-1.092h-1.04c-.702 0-1.092.39-1.092 1.092v2.704h-.754c-.728 0-1.092.39-1.092 1.092v.442c0 .728.364 1.092 1.066 1.092h.702v5.72z" fill="#7AC70C"/></g><g><g><g transform="translate(12 149)"><use fill="#000" fill-opacity="1" filter="url(#c)" xlink:href="#d"/><use fill="#FF9797" fill-rule="evenodd" xlink:href="#d"/></g><path d="M37.202 197.216h.187c.221 0 .374-.085.51-.272l.901-1.241c.204-.289.119-.51-.238-.51h-.391c-.238 0-.374.085-.493.289l-.748 1.258c-.17.255-.051.476.272.476zm-3.536 12.359c0 .272.136.425.408.425h6.205c.272 0 .425-.153.425-.425v-.204c0-.272-.153-.425-.425-.425h-5.44v-4.437h4.114c.272 0 .425-.153.425-.425v-.221c0-.272-.153-.408-.425-.408h-4.114v-4.352h5.134c.272 0 .425-.153.425-.425v-.204c0-.272-.153-.425-.425-.425h-5.899c-.272 0-.408.153-.408.425v11.101zm8.993-1.598c0 1.87 1.258 2.091 1.955 2.091.323 0 .442-.17.442-.425v-.255c0-.255-.153-.357-.357-.374-.374-.051-.884-.17-.884-1.241v-9.299c0-.272-.153-.425-.425-.425h-.323c-.272 0-.408.153-.408.425v9.503zm7.701-2.278c0 2.584 1.887 4.505 4.59 4.505 1.547 0 2.584-.663 3.06-1.054.272-.187.323-.459.153-.748l-.136-.255c-.204-.323-.459-.357-.765-.153-.408.306-1.156.782-2.193.782-1.768 0-3.026-1.343-3.026-3.094 0-1.768 1.258-3.06 2.992-3.06.901 0 1.564.391 1.921.646.323.187.561.17.765-.136l.17-.255c.204-.289.187-.578-.102-.765-.459-.357-1.394-.918-2.839-.918-2.686 0-4.59 1.955-4.59 4.505zm8.925-.017c0-2.601 2.057-4.488 4.624-4.488 2.567 0 4.641 1.887 4.641 4.488 0 2.618-2.074 4.522-4.641 4.522s-4.624-1.904-4.624-4.522zm1.666 0c0 1.802 1.343 3.094 2.958 3.094 1.632 0 2.958-1.292 2.958-3.094 0-1.785-1.326-3.06-2.958-3.06-1.615 0-2.958 1.275-2.958 3.06zm9.418 3.757c0 .374.204.561.561.561h.527c.374 0 .561-.187.561-.561v-3.451c0-1.598.952-3.298 2.584-3.298 1.326 0 1.496 1.037 1.496 2.159v4.59c0 .374.187.561.544.561h.544c.357 0 .544-.187.544-.561v-3.451c0-1.649.952-3.298 2.55-3.298 1.275 0 1.513.952 1.513 2.159v4.59c0 .374.204.561.561.561h.527c.374 0 .561-.187.561-.561v-4.947c0-2.193-.884-3.298-2.839-3.298-1.394 0-2.584.952-3.043 1.955h-.034c-.306-1.292-1.139-1.955-2.584-1.955-1.36 0-2.567 1.02-2.992 2.023h-.034s.051-.238.051-.493v-.765c0-.374-.187-.561-.561-.561h-.476c-.357 0-.561.187-.561.561v7.48zm14.79-3.74c0-2.737 1.853-4.505 4.301-4.505 2.38 0 3.706 1.7 3.706 4.097a.573.573 0 0 1-.578.578h-5.746c.102 1.87 1.445 2.907 2.975 2.907.935 0 1.666-.391 2.057-.68.323-.17.578-.136.765.187l.153.255c.17.289.119.578-.17.748-.51.357-1.53.918-2.907.918-2.703 0-4.556-1.955-4.556-4.505zm1.751-.918h4.607c-.051-1.513-.952-2.295-2.091-2.295-1.258 0-2.278.85-2.516 2.295zm11.696 2.924c0-2.788 3.57-2.941 5.219-2.941h.493v-.272c0-1.649-.901-2.21-2.108-2.21-.952 0-1.683.357-2.074.595-.238.119-.425.085-.578-.136l-.102-.17c-.136-.221-.102-.442.119-.578a5.212 5.212 0 0 1 2.72-.748c2.04 0 3.179 1.139 3.179 3.281v5.049c0 .272-.136.425-.408.425h-.272c-.272 0-.425-.136-.425-.425v-.68c0-.391.051-.646.051-.646h-.034c.017 0-.765 1.955-2.89 1.955-1.445 0-2.89-.85-2.89-2.499zm1.19-.102c0 .799.629 1.632 1.904 1.632 1.649 0 2.618-1.7 2.618-3.196v-.408h-.476c-1.343 0-4.046.051-4.046 1.972zm8.177 1.972c0 .272.153.425.425.425h.323c.272 0 .408-.153.408-.425v-3.196c0-1.785.867-3.842 2.669-3.842.289 0 .476-.153.476-.425v-.306c0-.272-.136-.408-.442-.408-1.36 0-2.346 1.071-2.754 2.312h-.034s.068-.306.068-.68v-1.156c0-.272-.153-.425-.408-.425h-.306c-.272 0-.425.153-.425.425v7.701zm5.746 0c0 .272.153.425.425.425h.323c.272 0 .408-.153.408-.425v-3.196c0-1.785.867-3.842 2.669-3.842.289 0 .476-.153.476-.425v-.306c0-.272-.136-.408-.442-.408-1.36 0-2.346 1.071-2.754 2.312h-.034s.068-.306.068-.68v-1.156c0-.272-.153-.425-.408-.425h-.306c-.272 0-.425.153-.425.425v7.701zm4.828-3.893c0-2.533 2.023-4.437 4.505-4.437 2.499 0 4.522 1.904 4.522 4.437 0 2.584-2.023 4.522-4.505 4.522-2.499 0-4.522-1.938-4.522-4.522zm1.19 0c0 1.989 1.496 3.485 3.332 3.485 1.819 0 3.315-1.496 3.315-3.485 0-1.938-1.496-3.4-3.315-3.4-1.836 0-3.332 1.462-3.332 3.4zm8.959 3.944c0 .238.136.374.408.374h6.358c.272 0 .408-.153.408-.425v-.187c0-.255-.136-.408-.408-.408h-4.369c-.561 0-.867.034-.867.034v-.034s.374-.357.697-.782l4.607-5.763a.726.726 0 0 0 .17-.493v-.119c0-.238-.136-.374-.408-.374h-5.984c-.272 0-.408.153-.408.425v.187c0 .255.136.408.408.408h3.978c.561 0 .85-.034.85-.034v.034s-.34.357-.68.782l-4.59 5.763a.726.726 0 0 0-.17.493v.119zm8.942-.051c0 .272.136.425.408.425h.561c.272 0 .408-.153.408-.425v-.578c0-.255-.136-.408-.408-.408h-.561c-.272 0-.408.153-.408.408v.578z" fill="#D33131"/></g><g><path d="M38.182 230.377v16.245" stroke="#D33131" stroke-width="2" stroke-linecap="square"/><path d="M47.818 229H38v7.5h8.273v2.85h8.636v-7.5h-7.09V229z" stroke="#D33131" stroke-width="2"/><path d="M65.362 243.37v-9.39c0-.405.21-.63.615-.63h2.88c1.05 0 1.575.09 2.025.285 1.08.45 1.785 1.47 1.785 2.91 0 1.26-.66 2.46-1.77 2.91v.03s.135.165.345.555l1.755 3.21c.255.435.06.75-.435.75h-.81c-.345 0-.57-.135-.735-.435l-1.875-3.54h-1.86v3.345c0 .42-.21.63-.615.63h-.69c-.405 0-.615-.21-.615-.63zm1.92-5.025h1.74c1.035 0 1.68-.645 1.68-1.695 0-.675-.255-1.215-.84-1.455-.255-.12-.585-.18-1.155-.18h-1.425v3.33zm8.07 5.025c0 .42.21.63.616.63h5.37c.405 0 .63-.21.63-.63v-.42c0-.405-.226-.615-.63-.615h-4.065v-2.865h2.97c.405 0 .63-.21.63-.63v-.42c0-.405-.226-.615-.63-.615h-2.97v-2.79h3.825c.404 0 .63-.21.63-.615v-.42c0-.405-.226-.63-.63-.63h-5.13c-.406 0-.616.225-.616.63v9.39zm8.956 0v-9.39c0-.405.21-.63.614-.63h3.48c1.996 0 3.39 1.395 3.39 3.465s-1.394 3.51-3.39 3.51h-2.174v3.045c0 .42-.21.63-.615.63h-.69c-.405 0-.615-.21-.615-.63zm1.92-4.725h1.815c1.14 0 1.785-.72 1.785-1.83 0-1.095-.645-1.8-1.755-1.8h-1.845v3.63zm7.11-.045c0-3.045 2.28-5.43 5.505-5.43 3.224 0 5.504 2.385 5.504 5.43 0 3.135-2.28 5.58-5.504 5.58-3.226 0-5.506-2.445-5.506-5.58zm1.995 0c0 2.16 1.47 3.81 3.51 3.81s3.51-1.65 3.51-3.81c0-2.07-1.47-3.66-3.51-3.66s-3.51 1.59-3.51 3.66zm11.445 4.77v-9.39c0-.405.21-.63.614-.63h2.88c1.05 0 1.575.09 2.025.285 1.08.45 1.785 1.47 1.785 2.91 0 1.26-.66 2.46-1.77 2.91v.03s.136.165.346.555l1.754 3.21c.255.435.06.75-.434.75h-.81c-.346 0-.57-.135-.736-.435l-1.874-3.54h-1.86v3.345c0 .42-.21.63-.615.63h-.69c-.406 0-.615-.21-.615-.63zm1.92-5.025h1.74c1.034 0 1.68-.645 1.68-1.695 0-.675-.255-1.215-.84-1.455-.256-.12-.586-.18-1.156-.18h-1.424v3.33zm10.08 5.025c0 .42.21.63.614.63h.675c.42 0 .63-.21.63-.63v-8.355h2.865c.406 0 .615-.21.615-.615v-.42c0-.405-.21-.63-.615-.63h-7.65c-.42 0-.63.225-.63.63v.42c0 .405.21.615.63.615h2.865v8.355z" fill="#D33131"/></g><path d="M32.76 178.198c0 3.971 2.736 7.03 6.973 7.03a7.562 7.562 0 0 0 4.769-1.672c.38-.323.399-.722.114-1.102l-.38-.513c-.304-.437-.684-.437-1.102-.133-.627.456-1.786 1.178-3.306 1.178-2.907 0-4.541-2.299-4.541-4.826 0-2.489 1.577-4.636 4.522-4.636 1.387 0 2.451.57 3.04.95.456.285.817.247 1.083-.19l.342-.551c.266-.418.247-.798-.152-1.102-.722-.513-2.204-1.349-4.408-1.349-4.085 0-6.954 3.002-6.954 6.916zm13.053 1.957c0-2.964 2.375-5.073 5.32-5.073 2.945 0 5.339 2.109 5.339 5.073 0 2.983-2.394 5.073-5.339 5.073-2.945 0-5.32-2.09-5.32-5.073zm2.451 0c0 1.805 1.292 3.021 2.869 3.021 1.577 0 2.888-1.216 2.888-3.021 0-1.786-1.311-3.021-2.888-3.021s-2.869 1.235-2.869 3.021zm9.975 4.047c0 .532.266.798.779.798h.836c.513 0 .779-.266.779-.798v-3.116c0-1.767.855-3.515 2.622-3.515.513 0 .817-.285.817-.798v-.741c0-.532-.19-.798-.722-.798-1.368 0-2.432 1.292-2.812 2.451H60.5s.057-.304.057-.665v-.912c0-.513-.285-.798-.798-.798h-.741c-.513 0-.779.285-.779.798v8.094zm7.125 0c0 .532.266.798.779.798h.836c.513 0 .779-.266.779-.798v-3.116c0-1.767.855-3.515 2.622-3.515.513 0 .817-.285.817-.798v-.741c0-.532-.19-.798-.722-.798-1.368 0-2.432 1.292-2.812 2.451h-.038s.057-.304.057-.665v-.912c0-.513-.285-.798-.798-.798h-.741c-.513 0-.779.285-.779.798v8.094zm6.232-4.047c0-2.983 2.014-5.073 4.921-5.073 2.755 0 4.294 1.957 4.294 4.617a.84.84 0 0 1-.836.817h-5.909c.152 1.748 1.444 2.66 2.907 2.66.893 0 1.634-.342 2.09-.627.475-.228.817-.171 1.064.266l.228.38c.228.437.152.817-.266 1.064a6.124 6.124 0 0 1-3.287.969c-3.211 0-5.206-2.318-5.206-5.073zm2.527-1.102h4.294c-.038-1.349-.855-2.147-1.957-2.147-1.235 0-2.109.855-2.337 2.147zm7.828 1.102c0 2.812 2.052 5.073 5.263 5.073 1.672 0 2.85-.684 3.439-1.121.38-.266.437-.646.209-1.064l-.19-.361c-.247-.456-.608-.513-1.083-.247-.456.323-1.216.741-2.166.741-1.862 0-3.021-1.406-3.021-3.04 0-1.653 1.159-3.002 2.945-3.002.836 0 1.482.323 1.881.589.456.228.779.228 1.064-.209l.247-.38c.266-.418.247-.817-.152-1.083-.57-.399-1.615-.969-3.173-.969-3.211 0-5.263 2.318-5.263 5.073zm11.21 1.387c0 2.622 2.052 3.553 3.781 3.553.665 0 .988-.228.988-.798v-.589c0-.532-.209-.722-.798-.779-.665-.076-1.558-.361-1.558-1.805v-3.762h1.425c.494 0 .779-.266.779-.798v-.323c0-.513-.285-.798-.798-.798h-1.406v-1.976c0-.513-.285-.798-.798-.798h-.76c-.513 0-.798.285-.798.798v1.976h-.551c-.532 0-.798.285-.798.798v.323c0 .532.266.798.779.798h.513v4.18zm10.906 2.698a5.667 5.667 0 0 0 3.23.988c2.242 0 3.686-1.273 3.686-2.983 0-3.306-4.807-2.679-4.807-4.275 0-.608.475-.95 1.311-.95.798 0 1.425.285 1.843.475.475.209.836.152 1.064-.304l.19-.342c.209-.437.152-.836-.285-1.064a5.397 5.397 0 0 0-2.698-.703c-2.033 0-3.705 1.007-3.705 2.907 0 3.325 4.807 2.736 4.807 4.313 0 .608-.513.988-1.349.988-.988 0-1.71-.418-2.166-.665-.475-.247-.798-.209-1.083.19l-.228.342c-.285.418-.247.836.19 1.083zm8.113-4.085c0-2.964 2.375-5.073 5.32-5.073 2.945 0 5.339 2.109 5.339 5.073 0 2.983-2.394 5.073-5.339 5.073-2.945 0-5.32-2.09-5.32-5.073zm2.451 0c0 1.805 1.292 3.021 2.869 3.021 1.577 0 2.888-1.216 2.888-3.021 0-1.786-1.311-3.021-2.888-3.021s-2.869 1.235-2.869 3.021zm9.956 1.824c0 2.774 1.653 3.116 2.945 3.116.57 0 .798-.323.798-.817v-.646c0-.437-.247-.646-.589-.684-.361-.038-.76-.209-.76-1.159v-9.481c0-.513-.266-.798-.779-.798h-.836c-.513 0-.779.285-.779.798v9.671zm11.707 1.585l.206.35v-.282c0-.228.038-.437.038-.437h-.038a2.835 2.835 0 0 1-.206.369zm.206.35l-.206-.35c-.568.863-1.71 1.664-3.157 1.664-2.071 0-3.363-1.045-3.363-3.686v-5.434c0-.513.285-.798.798-.798h.817c.532 0 .798.285.798.798v4.94c0 1.178.304 1.976 1.501 1.976 1.748 0 2.717-1.539 2.717-3.268v-3.648c0-.513.266-.798.798-.798h.817c.513 0 .798.285.798.798v8.094c0 .532-.285.798-.798.798h-.741c-.513 0-.779-.266-.779-.798v-.289zm5.225-2.372c0 2.622 2.052 3.553 3.781 3.553.665 0 .988-.228.988-.798v-.589c0-.532-.209-.722-.798-.779-.665-.076-1.558-.361-1.558-1.805v-3.762h1.425c.494 0 .779-.266.779-.798v-.323c0-.513-.285-.798-.798-.798h-1.406v-1.976c0-.513-.285-.798-.798-.798h-.76c-.513 0-.798.285-.798.798v1.976h-.551c-.532 0-.798.285-.798.798v.323c0 .532.266.798.779.798h.513v4.18zm7.163-7.885h.836c.513 0 .798-.266.798-.779v-.57c0-.513-.285-.798-.798-.798h-.836c-.513 0-.779.285-.779.798v.57c0 .513.266.779.779.779zm-.779 10.545c0 .532.266.798.779.798h.836c.513 0 .779-.266.779-.798v-8.094c0-.513-.266-.798-.779-.798h-.836c-.513 0-.779.285-.779.798v8.094zm4.18-4.047c0-2.964 2.375-5.073 5.32-5.073 2.945 0 5.339 2.109 5.339 5.073 0 2.983-2.394 5.073-5.339 5.073-2.945 0-5.32-2.09-5.32-5.073zm2.451 0c0 1.805 1.292 3.021 2.869 3.021 1.577 0 2.888-1.216 2.888-3.021 0-1.786-1.311-3.021-2.888-3.021s-2.869 1.235-2.869 3.021zm12.458-3.339l-.184-.414v.295c0 .209-.038.437-.038.437h.038c.052-.1.113-.208.184-.318zm-.184-.414l.184.414c.51-.785 1.54-1.734 3.255-1.734 2.147 0 3.382 1.121 3.382 3.686v5.434c0 .532-.266.798-.798.798h-.817c-.513 0-.798-.266-.798-.798v-4.94c0-1.178-.304-1.976-1.52-1.976-1.71 0-2.793 1.425-2.793 3.173v3.743c0 .532-.266.798-.779.798h-.836c-.513 0-.779-.266-.779-.798v-8.094c0-.513.266-.798.779-.798h.741c.513 0 .779.285.779.798v.294zm9.804 1.321h.817c.532 0 .798-.266.798-.779v-.836c0-.513-.266-.798-.798-.798h-.817c-.513 0-.779.285-.779.798v.836c0 .513.266.779.779.779zm-.779 6.479c0 .532.266.798.779.798h.817c.532 0 .798-.266.798-.798v-.817c0-.532-.266-.798-.798-.798h-.817c-.513 0-.779.266-.779.798v.817z" fill="#D33131"/></g></g></g></g></g></svg>