<svg height="2706" width="82" version="1.1" xmlns="http://www.w3.org/2000/svg" xmlns:xlink="http://www.w3.org/1999/xlink"><svg x="0" y="0" width="82" height="66" viewBox="0 0 82 66" version="1.1" xmlns="http://www.w3.org/2000/svg" xmlns:xlink="http://www.w3.org/1999/xlink"><title>en</title><g stroke="none" stroke-width="1" fill="none" fill-rule="evenodd"><g><path d="M18.563 4h44.874c4.285 0 6.348.399 8.493 1.545a10.904 10.904 0 0 1 4.525 4.525C77.6 12.215 78 14.278 78 18.563v28.874c0 4.285-.399 6.348-1.545 8.493a10.904 10.904 0 0 1-4.525 4.525C69.785 61.6 67.722 62 63.437 62H18.563c-4.285 0-6.348-.399-8.493-1.545a10.904 10.904 0 0 1-4.525-4.525C4.4 53.785 4 51.722 4 47.437V18.563c0-4.285.399-6.348 1.545-8.493a10.904 10.904 0 0 1 4.525-4.525C12.215 4.4 14.278 4 18.563 4z" stroke="#FFF" stroke-width="4" fill="#EEE"/><path d="M18.563 6h44.874c4.368 0 5.953.455 7.55 1.309a8.905 8.905 0 0 1 3.704 3.704c.172.322.328.643.467.987H6.842c.139-.344.295-.665.467-.987a8.905 8.905 0 0 1 3.704-3.704C12.61 6.455 14.195 6 18.563 6zM75.997 18c.002.182.003.37.003.563V24H6v-5.437c0-.193 0-.38.003-.563h69.994zM76 30v6H6v-6zM76 47.437c0 .193 0 .38-.003.563H6.003C6 47.818 6 47.63 6 47.437V42h70v5.437zM75.158 54c-.139.344-.295.665-.467.987a8.905 8.905 0 0 1-3.704 3.704C69.39 59.545 67.805 60 63.437 60H18.563c-4.368 0-5.953-.455-7.55-1.309a8.905 8.905 0 0 1-3.704-3.704A10.18 10.18 0 0 1 6.842 54h68.316z" fill="#FF4B4B"/><path d="M18.563 6H41v24H6V18.563c0-4.368.455-5.953 1.309-7.55a8.905 8.905 0 0 1 3.704-3.704C12.61 6.455 14.195 6 18.563 6z" fill="#1CB0F6"/><path d="M33.806 15.602l-1.275.67a.82.82 0 0 1-1.19-.863l.244-1.42a.417.417 0 0 0-.12-.37l-1.031-1.005a.82.82 0 0 1 .454-1.398l1.426-.207a.417.417 0 0 0 .313-.228l.638-1.292a.82.82 0 0 1 1.47 0l.638 1.292c.06.123.178.208.313.228l1.426.207a.82.82 0 0 1 .454 1.398l-1.031 1.006a.417.417 0 0 0-.12.368l.243 1.42a.82.82 0 0 1-1.189.865l-1.275-.671a.417.417 0 0 0-.388 0zM33.806 25.602l-1.275.67a.82.82 0 0 1-1.19-.863l.244-1.42a.417.417 0 0 0-.12-.37l-1.031-1.005a.82.82 0 0 1 .454-1.398l1.426-.207a.417.417 0 0 0 .313-.228l.638-1.292a.82.82 0 0 1 1.47 0l.638 1.292c.06.123.178.208.313.228l1.426.207a.82.82 0 0 1 .454 1.398l-1.031 1.006a.417.417 0 0 0-.12.368l.243 1.42a.82.82 0 0 1-1.189.865l-1.275-.671a.417.417 0 0 0-.388 0zM23.806 15.602l-1.275.67a.82.82 0 0 1-1.19-.863l.244-1.42a.417.417 0 0 0-.12-.37l-1.031-1.005a.82.82 0 0 1 .454-1.398l1.426-.207a.417.417 0 0 0 .313-.228l.638-1.292a.82.82 0 0 1 1.47 0l.638 1.292c.06.123.178.208.313.228l1.426.207a.82.82 0 0 1 .454 1.398l-1.031 1.006a.417.417 0 0 0-.12.368l.243 1.42a.82.82 0 0 1-1.189.865l-1.275-.671a.417.417 0 0 0-.388 0zM23.806 25.602l-1.275.67a.82.82 0 0 1-1.19-.863l.244-1.42a.417.417 0 0 0-.12-.37l-1.031-1.005a.82.82 0 0 1 .454-1.398l1.426-.207a.417.417 0 0 0 .313-.228l.638-1.292a.82.82 0 0 1 1.47 0l.638 1.292c.06.123.178.208.313.228l1.426.207a.82.82 0 0 1 .454 1.398l-1.031 1.006a.417.417 0 0 0-.12.368l.243 1.42a.82.82 0 0 1-1.189.865l-1.275-.671a.417.417 0 0 0-.388 0zM13.806 15.602l-1.275.67a.82.82 0 0 1-1.19-.863l.244-1.42a.417.417 0 0 0-.12-.37l-1.031-1.005a.82.82 0 0 1 .454-1.398l1.426-.207a.417.417 0 0 0 .313-.228l.638-1.292a.82.82 0 0 1 1.47 0l.638 1.292c.06.123.178.208.313.228l1.426.207a.82.82 0 0 1 .454 1.398l-1.031 1.006a.417.417 0 0 0-.12.368l.243 1.42a.82.82 0 0 1-1.189.865l-1.275-.671a.417.417 0 0 0-.388 0zM13.806 25.602l-1.275.67a.82.82 0 0 1-1.19-.863l.244-1.42a.417.417 0 0 0-.12-.37l-1.031-1.005a.82.82 0 0 1 .454-1.398l1.426-.207a.417.417 0 0 0 .313-.228l.638-1.292a.82.82 0 0 1 1.47 0l.638 1.292c.06.123.178.208.313.228l1.426.207a.82.82 0 0 1 .454 1.398l-1.031 1.006a.417.417 0 0 0-.12.368l.243 1.42a.82.82 0 0 1-1.189.865l-1.275-.671a.417.417 0 0 0-.388 0z" fill="#FFF" fill-rule="nonzero"/></g></g></svg><svg x="0" y="66" width="82" height="66" viewBox="0 0 82 66" version="1.1" xmlns="http://www.w3.org/2000/svg" xmlns:xlink="http://www.w3.org/1999/xlink"><title>es</title><g stroke="none" stroke-width="1" fill="none" fill-rule="evenodd"><g><path d="M18.563 4h44.874c4.285 0 6.348.399 8.493 1.545a10.904 10.904 0 0 1 4.525 4.525C77.6 12.215 78 14.278 78 18.563v28.874c0 4.285-.399 6.348-1.545 8.493a10.904 10.904 0 0 1-4.525 4.525C69.785 61.6 67.722 62 63.437 62H18.563c-4.285 0-6.348-.399-8.493-1.545a10.904 10.904 0 0 1-4.525-4.525C4.4 53.785 4 51.722 4 47.437V18.563c0-4.285.399-6.348 1.545-8.493a10.904 10.904 0 0 1 4.525-4.525C12.215 4.4 14.278 4 18.563 4z" stroke="#FFF" stroke-width="4" fill="#FF4B4B"/><path fill="#FFC800" d="M6 21.429h70V44.57H6z"/><path d="M33.222 27.214c1.074 0 1.945.87 1.945 1.945v7.682a1.944 1.944 0 1 1-3.89 0V29.16c0-1.074.871-1.945 1.945-1.945zM13.778 27.214c1.074 0 1.944.87 1.944 1.945v7.682a1.944 1.944 0 1 1-3.889 0V29.16c0-1.074.87-1.945 1.945-1.945z" fill="#FFF"/><path d="M19.417 25.286h8.166c.967 0 1.75.783 1.75 1.75v7.845a5.833 5.833 0 0 1-11.666 0v-7.845c0-.967.783-1.75 1.75-1.75z" fill="#FF4B4B"/></g></g></svg><svg x="0" y="132" width="82" height="66" viewBox="0 0 82 66" version="1.1" xmlns="http://www.w3.org/2000/svg" xmlns:xlink="http://www.w3.org/1999/xlink"><title>fr</title><g stroke="none" stroke-width="1" fill="none" fill-rule="evenodd"><g fill-rule="nonzero"><path d="M18.563 4h44.874c4.285 0 6.348.399 8.493 1.545a10.904 10.904 0 0 1 4.525 4.525C77.6 12.215 78 14.278 78 18.563v28.874c0 4.285-.399 6.348-1.545 8.493a10.904 10.904 0 0 1-4.525 4.525C69.785 61.6 67.722 62 63.437 62H18.563c-4.285 0-6.348-.399-8.493-1.545a10.904 10.904 0 0 1-4.525-4.525C4.4 53.785 4 51.722 4 47.437V18.563c0-4.285.399-6.348 1.545-8.493a10.904 10.904 0 0 1 4.525-4.525C12.215 4.4 14.278 4 18.563 4z" stroke="#FFF" stroke-width="4" fill="#EEE"/><path d="M29.625 6v54H18.563c-4.368 0-5.953-.455-7.55-1.309a8.905 8.905 0 0 1-3.704-3.704C6.455 53.39 6 51.805 6 47.437V18.563c0-4.368.455-5.953 1.309-7.55a8.905 8.905 0 0 1 3.704-3.704C12.61 6.455 14.195 6 18.563 6h11.062z" fill="#1CB0F6"/><path d="M52.375 6h11.062c4.368 0 5.953.455 7.55 1.309a8.905 8.905 0 0 1 3.704 3.704C75.545 12.61 76 14.195 76 18.563v28.874c0 4.368-.455 5.953-1.309 7.55a8.905 8.905 0 0 1-3.704 3.704C69.39 59.545 67.805 60 63.437 60H52.375V6z" fill="#FF4B4B"/></g></g></svg><svg x="0" y="198" width="82" height="66" viewBox="0 0 82 66" version="1.1" xmlns="http://www.w3.org/2000/svg" xmlns:xlink="http://www.w3.org/1999/xlink"><title>de</title><g stroke="none" stroke-width="1" fill="none" fill-rule="evenodd"><g fill-rule="nonzero"><path d="M18.563 4h44.874c4.285 0 6.348.399 8.493 1.545a10.904 10.904 0 0 1 4.525 4.525C77.6 12.215 78 14.278 78 18.563v28.874c0 4.285-.399 6.348-1.545 8.493a10.904 10.904 0 0 1-4.525 4.525C69.785 61.6 67.722 62 63.437 62H18.563c-4.285 0-6.348-.399-8.493-1.545a10.904 10.904 0 0 1-4.525-4.525C4.4 53.785 4 51.722 4 47.437V18.563c0-4.285.399-6.348 1.545-8.493a10.904 10.904 0 0 1 4.525-4.525C12.215 4.4 14.278 4 18.563 4z" stroke="#FFF" stroke-width="4" fill="#FF4B4B"/><path d="M76 42v5.437c0 4.368-.455 5.953-1.309 7.55a8.905 8.905 0 0 1-3.704 3.704C69.39 59.545 67.805 60 63.437 60H18.563c-4.368 0-5.953-.455-7.55-1.309a8.905 8.905 0 0 1-3.704-3.704C6.455 53.39 6 51.805 6 47.437V42h70z" fill="#FFC800"/><path d="M18.563 6h44.874c4.368 0 5.953.455 7.55 1.309a8.905 8.905 0 0 1 3.704 3.704C75.545 12.61 76 14.195 76 18.563V24H6v-5.437c0-4.368.455-5.953 1.309-7.55a8.905 8.905 0 0 1 3.704-3.704C12.61 6.455 14.195 6 18.563 6z" fill="#4C4C4C"/></g></g></svg><svg x="0" y="264" width="82" height="66" viewBox="0 0 82 66" version="1.1" xmlns="http://www.w3.org/2000/svg" xmlns:xlink="http://www.w3.org/1999/xlink"><title>ja</title><g stroke="none" stroke-width="1" fill="none" fill-rule="evenodd"><g transform="translate(6 6)"><path d="M12.563-2h44.874c4.285 0 6.348.399 8.493 1.545a10.904 10.904 0 0 1 4.525 4.525C71.6 6.215 72 8.278 72 12.563v28.874c0 4.285-.399 6.348-1.545 8.493a10.904 10.904 0 0 1-4.525 4.525C63.785 55.6 61.722 56 57.437 56H12.563c-4.285 0-6.348-.399-8.493-1.545A10.904 10.904 0 0 1-.455 49.93C-1.6 47.785-2 45.722-2 41.437V12.563c0-4.285.399-6.348 1.545-8.493A10.904 10.904 0 0 1 4.07-.455C6.215-1.6 8.278-2 12.563-2z" stroke="#FFF" stroke-width="4" fill="#EEE"/><circle fill="#FF4B4B" fill-rule="nonzero" cx="35" cy="27" r="14"/></g></g></svg><svg x="0" y="330" width="82" height="66" viewBox="0 0 82 66" version="1.1" xmlns="http://www.w3.org/2000/svg" xmlns:xlink="http://www.w3.org/1999/xlink"><title>it</title><g stroke="none" stroke-width="1" fill="none" fill-rule="evenodd"><g fill-rule="nonzero"><path d="M18.563 4h44.874c4.285 0 6.348.399 8.493 1.545a10.904 10.904 0 0 1 4.525 4.525C77.6 12.215 78 14.278 78 18.563v28.874c0 4.285-.399 6.348-1.545 8.493a10.904 10.904 0 0 1-4.525 4.525C69.785 61.6 67.722 62 63.437 62H18.563c-4.285 0-6.348-.399-8.493-1.545a10.904 10.904 0 0 1-4.525-4.525C4.4 53.785 4 51.722 4 47.437V18.563c0-4.285.399-6.348 1.545-8.493a10.904 10.904 0 0 1 4.525-4.525C12.215 4.4 14.278 4 18.563 4z" stroke="#FFF" stroke-width="4" fill="#EEE"/><path d="M29.625 6v54H18.563c-4.368 0-5.953-.455-7.55-1.309a8.905 8.905 0 0 1-3.704-3.704C6.455 53.39 6 51.805 6 47.437V18.563c0-4.368.455-5.953 1.309-7.55a8.905 8.905 0 0 1 3.704-3.704C12.61 6.455 14.195 6 18.563 6h11.062z" fill="#78C800"/><path d="M52.375 6h11.062c4.368 0 5.953.455 7.55 1.309a8.905 8.905 0 0 1 3.704 3.704C75.545 12.61 76 14.195 76 18.563v28.874c0 4.368-.455 5.953-1.309 7.55a8.905 8.905 0 0 1-3.704 3.704C69.39 59.545 67.805 60 63.437 60H52.375V6z" fill="#FF4B4B"/></g></g></svg><svg x="0" y="396" width="82" height="66" viewBox="0 0 82 66" version="1.1" xmlns="http://www.w3.org/2000/svg" xmlns:xlink="http://www.w3.org/1999/xlink"><title>ko</title><g stroke="none" stroke-width="1" fill="none" fill-rule="evenodd"><g transform="translate(6 6)"><path d="M12.563-2h44.874c4.285 0 6.348.399 8.493 1.545a10.904 10.904 0 0 1 4.525 4.525C71.6 6.215 72 8.278 72 12.563v28.874c0 4.285-.399 6.348-1.545 8.493a10.904 10.904 0 0 1-4.525 4.525C63.785 55.6 61.722 56 57.437 56H12.563c-4.285 0-6.348-.399-8.493-1.545A10.904 10.904 0 0 1-.455 49.93C-1.6 47.785-2 45.722-2 41.437V12.563c0-4.285.399-6.348 1.545-8.493A10.904 10.904 0 0 1 4.07-.455C6.215-1.6 8.278-2 12.563-2z" stroke="#FFF" stroke-width="4" fill="#EEE"/><circle fill="#FF4B4B" fill-rule="nonzero" cx="35" cy="27" r="13"/><path d="M22.01 27.502c2.223 2.321 4.413 3.482 6.57 3.482 2.159 0 4.309-1.164 6.448-3.492C36.985 25.164 39.092 24 41.35 24c2.177 0 4.393 1.082 6.648 3.246C47.867 34.312 42.098 40 35 40c-7.012 0-12.727-5.55-12.99-12.498z" fill="#1CB0F6" fill-rule="nonzero"/><path d="M17.054 47.635L8.26 38.862a1.312 1.312 0 0 1 1.855-1.858l8.793 8.773a1.312 1.312 0 0 1-1.854 1.858zM56.509 20.443l-3.186-3.19a1.313 1.313 0 0 1 1.857-1.855l3.186 3.19a1.313 1.313 0 0 1-1.857 1.855zM9.24 17.08a1.313 1.313 0 1 1-1.855-1.858l8.794-8.774a1.312 1.312 0 1 1 1.854 1.858L9.24 17.08zM50.691 14.639l-2.974-2.968a1.313 1.313 0 1 1 1.854-1.858l2.974 2.968a1.312 1.312 0 1 1-1.854 1.858zM14.691 38.337l-2.974-2.967a1.312 1.312 0 1 1 1.854-1.859l2.974 2.968a1.312 1.312 0 1 1-1.854 1.858zM49.49 44.143a1.312 1.312 0 0 1-1.855-1.858l8.794-8.774a1.312 1.312 0 0 1 1.854 1.859l-8.793 8.773zM60.009 16.951l-3.186-3.19a1.313 1.313 0 0 1 1.857-1.855l3.186 3.19a1.313 1.313 0 0 1-1.857 1.855zM12.74 20.572a1.312 1.312 0 1 1-1.855-1.858L19.68 9.94a1.312 1.312 0 1 1 1.854 1.858l-8.793 8.774zM52.99 47.635a1.312 1.312 0 0 1-1.855-1.858l8.794-8.773a1.312 1.312 0 0 1 1.854 1.858l-8.793 8.773zM54.191 11.147l-2.974-2.968a1.312 1.312 0 1 1 1.854-1.858l2.974 2.968a1.313 1.313 0 0 1-1.854 1.858zM20.509 44.142l-3.186-3.19a1.313 1.313 0 0 1 1.857-1.856l3.186 3.19a1.313 1.313 0 0 1-1.857 1.856z" fill="#4C4C4C" fill-rule="nonzero"/></g></g></svg><svg x="0" y="462" width="82" height="66" viewBox="0 0 82 66" version="1.1" xmlns="http://www.w3.org/2000/svg" xmlns:xlink="http://www.w3.org/1999/xlink"><title>zh</title><g stroke="none" stroke-width="1" fill="none" fill-rule="evenodd"><g><path d="M18.563 4h44.874c4.285 0 6.348.399 8.493 1.545a10.904 10.904 0 0 1 4.525 4.525C77.6 12.215 78 14.278 78 18.563v28.874c0 4.285-.399 6.348-1.545 8.493a10.904 10.904 0 0 1-4.525 4.525C69.785 61.6 67.722 62 63.437 62H18.563c-4.285 0-6.348-.399-8.493-1.545a10.904 10.904 0 0 1-4.525-4.525C4.4 53.785 4 51.722 4 47.437V18.563c0-4.285.399-6.348 1.545-8.493a10.904 10.904 0 0 1 4.525-4.525C12.215 4.4 14.278 4 18.563 4z" stroke="#FFF" stroke-width="4" fill="#FF4B4B"/><g fill="#FFC300" fill-rule="nonzero"><g><path d="M31.588 16.972l-1.282.197a.737.737 0 0 1-.758-1.084l.623-1.137a.375.375 0 0 0 .006-.349l-.583-1.158a.737.737 0 0 1 .796-1.056l1.274.241a.375.375 0 0 0 .334-.102l.921-.913a.737.737 0 0 1 1.25.43l.165 1.287c.015.123.09.23.2.286l1.153.595a.737.737 0 0 1-.023 1.322l-1.173.553a.375.375 0 0 0-.21.28l-.21 1.28a.737.737 0 0 1-1.264.386l-.889-.944a.375.375 0 0 0-.33-.114zM40.685 23.687l-.889.944a.737.737 0 0 1-1.264-.386l-.21-1.28a.375.375 0 0 0-.21-.279l-1.172-.554a.737.737 0 0 1-.023-1.322l1.153-.594a.375.375 0 0 0 .2-.286l.164-1.287a.737.737 0 0 1 1.25-.43l.922.913a.375.375 0 0 0 .334.102l1.274-.242a.737.737 0 0 1 .796 1.056l-.584 1.159a.375.375 0 0 0 .006.349l.624 1.137a.737.737 0 0 1-.759 1.083l-1.282-.197a.375.375 0 0 0-.33.114zM31.588 39.652l-1.282.197a.737.737 0 0 1-.758-1.084l.623-1.137a.375.375 0 0 0 .006-.349l-.583-1.158a.737.737 0 0 1 .796-1.057l1.274.242a.375.375 0 0 0 .334-.102l.921-.913a.737.737 0 0 1 1.25.43l.165 1.287c.015.123.09.23.2.286l1.153.594a.737.737 0 0 1-.023 1.323l-1.173.553a.375.375 0 0 0-.21.279l-.21 1.28a.737.737 0 0 1-1.264.387l-.889-.945a.375.375 0 0 0-.33-.113zM39.825 33.374l-1.148.603a.737.737 0 0 1-1.07-.777l.22-1.278a.375.375 0 0 0-.108-.332l-.929-.905a.737.737 0 0 1 .409-1.258l1.283-.187a.375.375 0 0 0 .283-.205l.574-1.163a.737.737 0 0 1 1.322 0l.574 1.163c.055.11.16.187.283.205l1.283.187a.737.737 0 0 1 .409 1.258l-.929.905a.375.375 0 0 0-.108.332l.22 1.278a.737.737 0 0 1-1.07.777l-1.149-.603a.375.375 0 0 0-.349 0z"/></g><path d="M21.612 31.204l-2.55 1.341a1.639 1.639 0 0 1-2.379-1.727l.488-2.841a.833.833 0 0 0-.24-.738l-2.064-2.012a1.639 1.639 0 0 1 .908-2.795l2.853-.414a.833.833 0 0 0 .627-.456l1.276-2.585a1.639 1.639 0 0 1 2.938 0l1.276 2.585a.833.833 0 0 0 .627.456l2.853.414a1.639 1.639 0 0 1 .908 2.795l-2.064 2.012a.833.833 0 0 0-.24.738l.488 2.84a1.639 1.639 0 0 1-2.378 1.728l-2.551-1.341a.833.833 0 0 0-.776 0z"/></g></g></g></svg><svg x="0" y="528" width="82" height="66" viewBox="0 0 82 66" version="1.1" xmlns="http://www.w3.org/2000/svg" xmlns:xlink="http://www.w3.org/1999/xlink"><title>ru</title><g stroke="none" stroke-width="1" fill="none" fill-rule="evenodd"><g fill-rule="nonzero"><path d="M18.563 4h44.874c4.285 0 6.348.399 8.493 1.545a10.904 10.904 0 0 1 4.525 4.525C77.6 12.215 78 14.278 78 18.563v28.874c0 4.285-.399 6.348-1.545 8.493a10.904 10.904 0 0 1-4.525 4.525C69.785 61.6 67.722 62 63.437 62H18.563c-4.285 0-6.348-.399-8.493-1.545a10.904 10.904 0 0 1-4.525-4.525C4.4 53.785 4 51.722 4 47.437V18.563c0-4.285.399-6.348 1.545-8.493a10.904 10.904 0 0 1 4.525-4.525C12.215 4.4 14.278 4 18.563 4z" stroke="#FFF" stroke-width="4" fill="#1CB0F6"/><path d="M76 42v5.437c0 4.368-.455 5.953-1.309 7.55a8.905 8.905 0 0 1-3.704 3.704C69.39 59.545 67.805 60 63.437 60H18.563c-4.368 0-5.953-.455-7.55-1.309a8.905 8.905 0 0 1-3.704-3.704C6.455 53.39 6 51.805 6 47.437V42h70z" fill="#FF4B4B"/><path d="M18.563 6h44.874c4.368 0 5.953.455 7.55 1.309a8.905 8.905 0 0 1 3.704 3.704C75.545 12.61 76 14.195 76 18.563V24H6v-5.437c0-4.368.455-5.953 1.309-7.55a8.905 8.905 0 0 1 3.704-3.704C12.61 6.455 14.195 6 18.563 6z" fill="#EEE"/></g></g></svg><svg x="0" y="594" width="82" height="66" viewBox="0 0 82 66" version="1.1" xmlns="http://www.w3.org/2000/svg" xmlns:xlink="http://www.w3.org/1999/xlink"><title>pt copy</title><g stroke="none" stroke-width="1" fill="none" fill-rule="evenodd"><g transform="translate(6 2)"><path d="M12.563 2h44.874c4.285 0 6.348.399 8.493 1.545a10.904 10.904 0 0 1 4.525 4.525C71.6 10.215 72 12.278 72 16.563v28.874c0 4.285-.399 6.348-1.545 8.493a10.904 10.904 0 0 1-4.525 4.525C63.785 59.6 61.722 60 57.437 60H12.563c-4.285 0-6.348-.399-8.493-1.545A10.904 10.904 0 0 1-.455 53.93C-1.6 51.785-2 49.722-2 45.437V16.563c0-4.285.399-6.348 1.545-8.493A10.904 10.904 0 0 1 4.07 3.545C6.215 2.4 8.278 2 12.563 2z" stroke="#FFF" stroke-width="4" fill="#78C800" fill-rule="nonzero"/><path d="M6.112 30.379l27.71-20.197a2 2 0 0 1 2.356 0l27.71 20.197a2 2 0 0 1-.005 3.236l-27.71 20.07a2 2 0 0 1-2.346 0l-27.71-20.07a2 2 0 0 1-.005-3.236z" fill="#FFC800"/><circle fill="#1CB0F6" cx="35" cy="32" r="12"/><path d="M23.026 31.21a11.93 11.93 0 0 1 1.12-4.335l22.84 5.695a11.938 11.938 0 0 1-1.04 4.355l-22.92-5.715z" fill="#FFF"/></g></g></svg><svg x="0" y="660" width="82" height="66" viewBox="0 0 82 66" version="1.1" xmlns="http://www.w3.org/2000/svg" xmlns:xlink="http://www.w3.org/1999/xlink"><title>tr</title><g stroke="none" stroke-width="1" fill="none" fill-rule="evenodd"><g><path d="M18.563 4h44.874c4.285 0 6.348.399 8.493 1.545a10.904 10.904 0 0 1 4.525 4.525C77.6 12.215 78 14.278 78 18.563v28.682c0 4.285-.399 6.349-1.545 8.493a10.904 10.904 0 0 1-4.525 4.525c-2.145 1.147-4.208 1.545-8.493 1.545H18.563c-4.285 0-6.348-.398-8.493-1.545a10.904 10.904 0 0 1-4.525-4.525C4.4 53.594 4 51.53 4 47.245V18.563c0-4.285.399-6.348 1.545-8.493a10.904 10.904 0 0 1 4.525-4.525C12.215 4.4 14.278 4 18.563 4z" stroke="#FFF" stroke-width="4" fill="#FF4B4B"/><path d="M48.312 21.334C47.437 21.111 46.667 21 46 21c-6.627 0-12 5.373-12 12s5.373 12 12 12c.667 0 1.437-.111 2.312-.334a1 1 0 0 1 .822 1.787C46.721 48.15 43.676 49 40 49c-8.837 0-16-7.163-16-16s7.163-16 16-16c3.676 0 6.72.85 9.134 2.547a1 1 0 0 1-.822 1.787z" fill="#FFF" fill-rule="nonzero"/><path d="M53.763 37.897l-1.684 1.567a1.393 1.393 0 0 1-2.337-.89l-.219-2.337a1 1 0 0 0-.502-.777l-2.026-1.147a1.405 1.405 0 0 1 .136-2.512l2.11-.911a1 1 0 0 0 .586-.726l.445-2.276a1.392 1.392 0 0 1 2.416-.647l1.523 1.748a1 1 0 0 0 .87.336l2.284-.266a1.405 1.405 0 0 1 1.373 2.108l-1.18 2.006a1 1 0 0 0-.047.924l.978 2.134a1.393 1.393 0 0 1-1.578 1.939l-2.242-.516a1 1 0 0 0-.906.243z" fill="#FFF" fill-rule="nonzero"/></g></g></svg><svg x="0" y="726" width="82" height="66" viewBox="0 0 82 66" version="1.1" xmlns="http://www.w3.org/2000/svg" xmlns:xlink="http://www.w3.org/1999/xlink"><title>nl</title><g stroke="none" stroke-width="1" fill="none" fill-rule="evenodd"><g fill-rule="nonzero"><path d="M18.563 4h44.874c4.285 0 6.348.399 8.493 1.545a10.904 10.904 0 0 1 4.525 4.525C77.6 12.215 78 14.278 78 18.563v28.874c0 4.285-.399 6.348-1.545 8.493a10.904 10.904 0 0 1-4.525 4.525C69.785 61.6 67.722 62 63.437 62H18.563c-4.285 0-6.348-.399-8.493-1.545a10.904 10.904 0 0 1-4.525-4.525C4.4 53.785 4 51.722 4 47.437V18.563c0-4.285.399-6.348 1.545-8.493a10.904 10.904 0 0 1 4.525-4.525C12.215 4.4 14.278 4 18.563 4z" stroke="#FFF" stroke-width="4" fill="#EEE"/><path d="M76 42v5.437c0 4.368-.455 5.953-1.309 7.55a8.905 8.905 0 0 1-3.704 3.704C69.39 59.545 67.805 60 63.437 60H18.563c-4.368 0-5.953-.455-7.55-1.309a8.905 8.905 0 0 1-3.704-3.704C6.455 53.39 6 51.805 6 47.437V42h70z" fill="#1CB0F6"/><path d="M18.563 6h44.874c4.368 0 5.953.455 7.55 1.309a8.905 8.905 0 0 1 3.704 3.704C75.545 12.61 76 14.195 76 18.563V24H6v-5.437c0-4.368.455-5.953 1.309-7.55a8.905 8.905 0 0 1 3.704-3.704C12.61 6.455 14.195 6 18.563 6z" fill="#FF4B4B"/></g></g></svg><svg x="0" y="792" width="82" height="66" viewBox="0 0 82 66" version="1.1" xmlns="http://www.w3.org/2000/svg" xmlns:xlink="http://www.w3.org/1999/xlink"><title>sv</title><g stroke="none" stroke-width="1" fill="none" fill-rule="evenodd"><g fill-rule="nonzero"><path d="M18.563 4h44.874c4.285 0 6.348.399 8.493 1.545a10.904 10.904 0 0 1 4.525 4.525C77.6 12.215 78 14.278 78 18.563v28.874c0 4.285-.399 6.348-1.545 8.493a10.904 10.904 0 0 1-4.525 4.525C69.785 61.6 67.722 62 63.437 62H18.563c-4.285 0-6.348-.399-8.493-1.545a10.904 10.904 0 0 1-4.525-4.525C4.4 53.785 4 51.722 4 47.437V18.563c0-4.285.399-6.348 1.545-8.493a10.904 10.904 0 0 1 4.525-4.525C12.215 4.4 14.278 4 18.563 4z" stroke="#FFF" stroke-width="4" fill="#1CB0F6"/><path d="M35 26h41v14H35v20H21V40H6V26h15V6h14v20z" fill="#FFC800"/></g></g></svg><svg x="0" y="858" width="82" height="66" viewBox="0 0 82 66" version="1.1" xmlns="http://www.w3.org/2000/svg" xmlns:xlink="http://www.w3.org/1999/xlink"><title>ga</title><g stroke="none" stroke-width="1" fill="none" fill-rule="evenodd"><g fill-rule="nonzero"><path d="M18.563 4h44.874c4.285 0 6.348.399 8.493 1.545a10.904 10.904 0 0 1 4.525 4.525C77.6 12.215 78 14.278 78 18.563v28.874c0 4.285-.399 6.348-1.545 8.493a10.904 10.904 0 0 1-4.525 4.525C69.785 61.6 67.722 62 63.437 62H18.563c-4.285 0-6.348-.399-8.493-1.545a10.904 10.904 0 0 1-4.525-4.525C4.4 53.785 4 51.722 4 47.437V18.563c0-4.285.399-6.348 1.545-8.493a10.904 10.904 0 0 1 4.525-4.525C12.215 4.4 14.278 4 18.563 4z" stroke="#FFF" stroke-width="4" fill="#EEE"/><path d="M29.625 6v54H18.563c-4.368 0-5.953-.455-7.55-1.309a8.905 8.905 0 0 1-3.704-3.704C6.455 53.39 6 51.805 6 47.437V18.563c0-4.368.455-5.953 1.309-7.55a8.905 8.905 0 0 1 3.704-3.704C12.61 6.455 14.195 6 18.563 6h11.062z" fill="#78C800"/><path d="M52.375 6h11.062c4.368 0 5.953.455 7.55 1.309a8.905 8.905 0 0 1 3.704 3.704C75.545 12.61 76 14.195 76 18.563v28.874c0 4.368-.455 5.953-1.309 7.55a8.905 8.905 0 0 1-3.704 3.704C69.39 59.545 67.805 60 63.437 60H52.375V6z" fill="#FF9600"/></g></g></svg><svg x="0" y="924" width="82" height="66" viewBox="0 0 82 66" version="1.1" xmlns="http://www.w3.org/2000/svg" xmlns:xlink="http://www.w3.org/1999/xlink"><title>el</title><g stroke="none" stroke-width="1" fill="none" fill-rule="evenodd"><g fill-rule="nonzero"><path d="M18.563 4h44.874c4.285 0 6.348.399 8.493 1.545a10.904 10.904 0 0 1 4.525 4.525C77.6 12.215 78 14.278 78 18.563v28.874c0 4.285-.399 6.348-1.545 8.493a10.904 10.904 0 0 1-4.525 4.525C69.785 61.6 67.722 62 63.437 62H18.563c-4.285 0-6.348-.399-8.493-1.545a10.904 10.904 0 0 1-4.525-4.525C4.4 53.785 4 51.722 4 47.437V18.563c0-4.285.399-6.348 1.545-8.493a10.904 10.904 0 0 1 4.525-4.525C12.215 4.4 14.278 4 18.563 4z" stroke="#FFF" stroke-width="4" fill="#EEE"/><path d="M18.563 6H41v30H6V18.563c0-4.368.455-5.953 1.309-7.55a8.905 8.905 0 0 1 3.704-3.704C12.61 6.455 14.195 6 18.563 6z" fill="#1CB0F6"/><path d="M63.437 6c4.368 0 5.953.455 7.55 1.309a8.905 8.905 0 0 1 3.704 3.704c.172.322.328.643.467.987H33V6h30.437zM75.997 18c.002.182.003.37.003.563V24H31v-6h44.997zM76 30v6H6v-6zM76 42v5.437c0 .193 0 .38-.003.563H6.003C6 47.818 6 47.63 6 47.437V42h70zM75.158 54c-.139.344-.295.665-.467.987a8.905 8.905 0 0 1-3.704 3.704C69.39 59.545 67.805 60 63.437 60H18.563c-4.368 0-5.953-.455-7.55-1.309a8.905 8.905 0 0 1-3.704-3.704A10.18 10.18 0 0 1 6.842 54h68.316z" fill="#1CB0F6"/><path fill="#EEE" d="M6 18h35v6H6z"/><path fill="#EEE" d="M20 6h6v32h-6z"/></g></g></svg><svg x="0" y="990" width="82" height="66" viewBox="0 0 82 66" version="1.1" xmlns="http://www.w3.org/2000/svg" xmlns:xlink="http://www.w3.org/1999/xlink"><title>he</title><g stroke="none" stroke-width="1" fill="none" fill-rule="evenodd"><g fill-rule="nonzero"><path d="M18.563 4h44.874c4.285 0 6.348.399 8.493 1.545a10.904 10.904 0 0 1 4.525 4.525C77.6 12.215 78 14.278 78 18.563v28.874c0 4.285-.399 6.348-1.545 8.493a10.904 10.904 0 0 1-4.525 4.525C69.785 61.6 67.722 62 63.437 62H18.563c-4.285 0-6.348-.399-8.493-1.545a10.904 10.904 0 0 1-4.525-4.525C4.4 53.785 4 51.722 4 47.437V18.563c0-4.285.399-6.348 1.545-8.493a10.904 10.904 0 0 1 4.525-4.525C12.215 4.4 14.278 4 18.563 4z" stroke="#FFF" stroke-width="4" fill="#EEE"/><path d="M75.997 48c-.038 3.945-.49 5.46-1.306 6.987-.19.355-.4.693-.628 1.013H7.937a9.259 9.259 0 0 1-.628-1.013C6.493 53.46 6.041 51.945 6.003 48h69.994zM74.063 10c.229.32.438.658.628 1.013.816 1.527 1.268 3.042 1.306 6.987H6.003c.038-3.945.49-5.46 1.306-6.987.19-.355.4-.693.628-1.013h66.126zM41.528 23.015a.033.033 0 0 0-.056 0l-9.189 14.788a.033.033 0 0 0 .028.05H50.69a.033.033 0 0 0 .028-.05l-9.189-14.788zm2.209-1.372l9.188 14.788a2.633 2.633 0 0 1-2.236 4.023H32.31a2.633 2.633 0 0 1-2.236-4.023l9.188-14.788a2.633 2.633 0 0 1 4.474 0z" fill="#1CB0F6"/><path d="M41.472 42.684a.033.033 0 0 0 .057 0l9.188-14.788a.033.033 0 0 0-.028-.05H32.312a.033.033 0 0 0-.029.05l9.189 14.788zm-2.208 1.372l-9.189-14.788a2.633 2.633 0 0 1 2.237-4.023h18.377a2.633 2.633 0 0 1 2.237 4.023l-9.189 14.788a2.633 2.633 0 0 1-4.473 0z" fill="#1CB0F6"/></g></g></svg><svg x="0" y="1056" width="82" height="66" viewBox="0 0 82 66" version="1.1" xmlns="http://www.w3.org/2000/svg" xmlns:xlink="http://www.w3.org/1999/xlink"><title>pl</title><g stroke="none" stroke-width="1" fill="none" fill-rule="evenodd"><g fill-rule="nonzero"><path d="M18.563 4h44.874c4.285 0 6.348.399 8.493 1.545a10.904 10.904 0 0 1 4.525 4.525C77.6 12.215 78 14.278 78 18.563v28.874c0 4.285-.399 6.348-1.545 8.493a10.904 10.904 0 0 1-4.525 4.525C69.785 61.6 67.722 62 63.437 62H18.563c-4.285 0-6.348-.399-8.493-1.545a10.904 10.904 0 0 1-4.525-4.525C4.4 53.785 4 51.722 4 47.437V18.563c0-4.285.399-6.348 1.545-8.493a10.904 10.904 0 0 1 4.525-4.525C12.215 4.4 14.278 4 18.563 4z" stroke="#FFF" stroke-width="4" fill="#EEE"/><path d="M76 33v14.437c0 4.368-.455 5.953-1.309 7.55a8.905 8.905 0 0 1-3.704 3.704C69.39 59.545 67.805 60 63.437 60H18.563c-4.368 0-5.953-.455-7.55-1.309a8.905 8.905 0 0 1-3.704-3.704C6.455 53.39 6 51.805 6 47.437V33h70z" fill="#FF4B4B"/></g></g></svg><svg x="0" y="1122" width="82" height="66" viewBox="0 0 82 66" version="1.1" xmlns="http://www.w3.org/2000/svg" xmlns:xlink="http://www.w3.org/1999/xlink"><title>no copy</title><g stroke="none" stroke-width="1" fill="none" fill-rule="evenodd"><g><path d="M18.563 4h44.874c4.285 0 6.348.399 8.493 1.545a10.904 10.904 0 0 1 4.525 4.525C77.6 12.215 78 14.278 78 18.563v28.874c0 4.285-.399 6.348-1.545 8.493a10.904 10.904 0 0 1-4.525 4.525C69.785 61.6 67.722 62 63.437 62H18.563c-4.285 0-6.348-.399-8.493-1.545a10.904 10.904 0 0 1-4.525-4.525C4.4 53.785 4 51.722 4 47.437V18.563c0-4.285.399-6.348 1.545-8.493a10.904 10.904 0 0 1 4.525-4.525C12.215 4.4 14.278 4 18.563 4z" stroke="#FFF" stroke-width="4" fill="#FF4B4B" fill-rule="nonzero"/><path fill="#FFF" fill-rule="nonzero" d="M21 6h14v20h41v14H35v20H21V40H6V26h15z"/><path fill="#1CB0F6" d="M32 29h44v8H32v23h-8V37H6v-8h18V6h8z"/></g></g></svg><svg x="0" y="1188" width="82" height="66" viewBox="0 0 82 66" version="1.1" xmlns="http://www.w3.org/2000/svg" xmlns:xlink="http://www.w3.org/1999/xlink"><title>vi</title><g stroke="none" stroke-width="1" fill="none" fill-rule="evenodd"><g fill-rule="nonzero"><path d="M18.563 4h44.874c4.285 0 6.348.399 8.493 1.545a10.904 10.904 0 0 1 4.525 4.525C77.6 12.215 78 14.278 78 18.563v28.874c0 4.285-.399 6.348-1.545 8.493a10.904 10.904 0 0 1-4.525 4.525C69.785 61.6 67.722 62 63.437 62H18.563c-4.285 0-6.348-.399-8.493-1.545a10.904 10.904 0 0 1-4.525-4.525C4.4 53.785 4 51.722 4 47.437V18.563c0-4.285.399-6.348 1.545-8.493a10.904 10.904 0 0 1 4.525-4.525C12.215 4.4 14.278 4 18.563 4z" stroke="#FFF" stroke-width="4" fill="#FF4B4B"/><path d="M40.535 40.745l-3.943 2.073a2.458 2.458 0 0 1-3.567-2.592l.753-4.39a1 1 0 0 0-.287-.885l-3.19-3.11a2.458 2.458 0 0 1 1.362-4.192l4.408-.641a1 1 0 0 0 .753-.547l1.972-3.995a2.458 2.458 0 0 1 4.408 0l1.972 3.995a1 1 0 0 0 .753.547l4.408.64a2.458 2.458 0 0 1 1.362 4.193l-3.19 3.11a1 1 0 0 0-.287.885l.753 4.39a2.458 2.458 0 0 1-3.567 2.592l-3.943-2.073a1 1 0 0 0-.93 0z" fill="#FFC300"/></g></g></svg><svg x="0" y="1254" width="82" height="66" viewBox="0 0 82 66" version="1.1" xmlns="http://www.w3.org/2000/svg" xmlns:xlink="http://www.w3.org/1999/xlink"><title>da</title><g stroke="none" stroke-width="1" fill="none" fill-rule="evenodd"><g><path d="M18.563 4h44.874c4.285 0 6.348.399 8.493 1.545a10.904 10.904 0 0 1 4.525 4.525C77.6 12.215 78 14.278 78 18.563v28.874c0 4.285-.399 6.348-1.545 8.493a10.904 10.904 0 0 1-4.525 4.525C69.785 61.6 67.722 62 63.437 62H18.563c-4.285 0-6.348-.399-8.493-1.545a10.904 10.904 0 0 1-4.525-4.525C4.4 53.785 4 51.722 4 47.437V18.563c0-4.285.399-6.348 1.545-8.493a10.904 10.904 0 0 1 4.525-4.525C12.215 4.4 14.278 4 18.563 4z" stroke="#FFF" stroke-width="4" fill="#FF4B4B" fill-rule="nonzero"/><path fill="#EEE" d="M25 6h12v54H25z"/><path fill="#EEE" d="M76 27v12H6V27z"/></g></g></svg><svg x="0" y="1320" width="82" height="66" viewBox="0 0 82 66" version="1.1" xmlns="http://www.w3.org/2000/svg" xmlns:xlink="http://www.w3.org/1999/xlink"><title>hv</title><g stroke="none" stroke-width="1" fill="none" fill-rule="evenodd"><g fill-rule="nonzero"><path d="M18.563 4h44.874c4.285 0 6.348.399 8.493 1.545a10.904 10.904 0 0 1 4.525 4.525C77.6 12.215 78 14.278 78 18.563v28.874c0 4.285-.399 6.348-1.545 8.493a10.904 10.904 0 0 1-4.525 4.525C69.785 61.6 67.722 62 63.437 62H18.563c-4.285 0-6.348-.399-8.493-1.545a10.904 10.904 0 0 1-4.525-4.525C4.4 53.785 4 51.722 4 47.437V18.563c0-4.285.399-6.348 1.545-8.493a10.904 10.904 0 0 1 4.525-4.525C12.215 4.4 14.278 4 18.563 4z" stroke="#FFF" stroke-width="4" fill="#4B4B4B"/><path d="M41.1 15.98l5.66-2.787a.9.9 0 0 1 1.29.921L47.681 17H53c9.941 0 18 8.059 18 18s-8.059 18-18 18h-6.524C44.56 53 43 54.563 43 56.5s1.56 3.5 3.476 3.5H56 29.35a17.601 17.601 0 0 1-.35-3.5C29 46.839 36.82 39 46.476 39H53a4 4 0 1 0 0-8h-8.736l.56 2.091a.9.9 0 0 1-.83 1.132l-7.127.306 1.306 1.961a.9.9 0 0 1-.697 1.398l-10.553.603a7.278 7.278 0 0 1-3.889-.868l-2.77 1.422a.9.9 0 0 1-1.227-.42 11.588 11.588 0 0 1 3.788-14.334L39.597 12.36a.9.9 0 0 1 1.422.708l.082 2.912z" fill="#FF4B4B"/><path d="M19.481 44.822l-5.196 3a1 1 0 0 1-1.366-.366 4 4 0 0 1 6.928-4 1 1 0 0 1-.366 1.366z" fill="#FF9600"/><path d="M16.488 43.975l6.062-3.5a1 1 0 0 1 1.366.366 4 4 0 0 1-1.464 5.464l-.866.5a4 4 0 0 1-5.464-1.464 1 1 0 0 1 .366-1.366zM13.5 51.134l3.464-2a1 1 0 0 1 1.366.366 3 3 0 1 1-5.196 3 1 1 0 0 1 .366-1.366zM25.928 27.815l3.818-3.825a.9.9 0 0 1 1.274 0 2.704 2.704 0 0 1 0 3.822l-1.273 1.275a2.699 2.699 0 0 1-3.816.003l-.003-.003a.9.9 0 0 1 0-1.272z" fill="#FFC300"/></g></g></svg><svg x="0" y="1386" width="82" height="66" viewBox="0 0 82 66" version="1.1" xmlns="http://www.w3.org/2000/svg" xmlns:xlink="http://www.w3.org/1999/xlink"><title>ro</title><g stroke="none" stroke-width="1" fill="none" fill-rule="evenodd"><g fill-rule="nonzero"><path d="M18.563 4h44.874c4.285 0 6.348.399 8.493 1.545a10.904 10.904 0 0 1 4.525 4.525C77.6 12.215 78 14.278 78 18.563v28.874c0 4.285-.399 6.348-1.545 8.493a10.904 10.904 0 0 1-4.525 4.525C69.785 61.6 67.722 62 63.437 62H18.563c-4.285 0-6.348-.399-8.493-1.545a10.904 10.904 0 0 1-4.525-4.525C4.4 53.785 4 51.722 4 47.437V18.563c0-4.285.399-6.348 1.545-8.493a10.904 10.904 0 0 1 4.525-4.525C12.215 4.4 14.278 4 18.563 4z" stroke="#FFF" stroke-width="4" fill="#FFC300"/><path d="M29.625 6v54H18.563c-4.368 0-5.953-.455-7.55-1.309a8.905 8.905 0 0 1-3.704-3.704C6.455 53.39 6 51.805 6 47.437V18.563c0-4.368.455-5.953 1.309-7.55a8.905 8.905 0 0 1 3.704-3.704C12.61 6.455 14.195 6 18.563 6h11.062z" fill="#1CB0F6"/><path d="M52.375 6h11.062c4.368 0 5.953.455 7.55 1.309a8.905 8.905 0 0 1 3.704 3.704C75.545 12.61 76 14.195 76 18.563v28.874c0 4.368-.455 5.953-1.309 7.55a8.905 8.905 0 0 1-3.704 3.704C69.39 59.545 67.805 60 63.437 60H52.375V6z" fill="#FF4B4B"/></g></g></svg><svg x="0" y="1452" width="82" height="66" viewBox="0 0 82 66" version="1.1" xmlns="http://www.w3.org/2000/svg" xmlns:xlink="http://www.w3.org/1999/xlink"><title>sw</title><g stroke="none" stroke-width="1" fill="none" fill-rule="evenodd"><g fill-rule="nonzero"><path d="M18.563 4h44.874c4.285 0 6.348.399 8.493 1.545a10.904 10.904 0 0 1 4.525 4.525C77.6 12.215 78 14.278 78 18.563v28.874c0 4.285-.399 6.348-1.545 8.493a10.904 10.904 0 0 1-4.525 4.525C69.785 61.6 67.722 62 63.437 62H18.563c-4.285 0-6.348-.399-8.493-1.545a10.904 10.904 0 0 1-4.525-4.525C4.4 53.785 4 51.722 4 47.437V18.563c0-4.285.399-6.348 1.545-8.493a10.904 10.904 0 0 1 4.525-4.525C12.215 4.4 14.278 4 18.563 4z" stroke="#FFF" stroke-width="4" fill="#1CB0F6"/><path d="M71.438 7.567L6.514 53.027C6.176 51.792 6 50.152 6 47.437V18.563c0-4.368.455-5.953 1.309-7.55a8.905 8.905 0 0 1 3.704-3.704C12.61 6.455 14.195 6 18.563 6h44.874c4.368 0 5.953.455 7.55 1.309.153.082.304.168.451.258z" fill="#7AC70C"/><path d="M62.193 6h1.244c4.368 0 5.953.455 7.55 1.309a8.905 8.905 0 0 1 3.704 3.704C75.545 12.61 76 14.195 76 18.563v2.52L20.421 60h-1.858c-4.368 0-5.953-.455-7.55-1.309a8.905 8.905 0 0 1-3.704-3.704C6.455 53.39 6 51.805 6 47.437v-2.09L62.193 6z" fill="#FFC300"/><path d="M68.505 6.386a9.036 9.036 0 0 1 2.482.923 8.905 8.905 0 0 1 3.704 3.704c.676 1.264 1.102 2.52 1.25 5.151L13.8 59.676a9.11 9.11 0 0 1-2.788-.985 8.905 8.905 0 0 1-3.704-3.704c-.653-1.22-1.072-2.434-1.234-4.887l62.43-43.714z" fill="#4B4B4B"/></g></g></svg><svg x="0" y="1518" width="82" height="66" viewBox="0 0 82 66" version="1.1" xmlns="http://www.w3.org/2000/svg" xmlns:xlink="http://www.w3.org/1999/xlink"><title>eo</title><g stroke="none" stroke-width="1" fill="none" fill-rule="evenodd"><g fill-rule="nonzero"><path d="M18.563 4h44.874c4.285 0 6.348.399 8.493 1.545a10.904 10.904 0 0 1 4.525 4.525C77.6 12.215 78 14.278 78 18.563v28.874c0 4.285-.399 6.348-1.545 8.493a10.904 10.904 0 0 1-4.525 4.525C69.785 61.6 67.722 62 63.437 62H18.563c-4.285 0-6.348-.399-8.493-1.545a10.904 10.904 0 0 1-4.525-4.525C4.4 53.785 4 51.722 4 47.437V18.563c0-4.285.399-6.348 1.545-8.493a10.904 10.904 0 0 1 4.525-4.525C12.215 4.4 14.278 4 18.563 4z" stroke="#FFF" stroke-width="4" fill="#7AC70C"/><path d="M18.563 6H41v27a4 4 0 0 1-4 4H6V18.563c0-4.368.455-5.953 1.309-7.55a8.905 8.905 0 0 1 3.704-3.704C12.61 6.455 14.195 6 18.563 6z" fill="#EEE"/><path d="M22.597 28.712l-3.418 1.797a2.13 2.13 0 0 1-3.09-2.246l.652-3.805a.867.867 0 0 0-.25-.767l-2.764-2.695a2.13 2.13 0 0 1 1.18-3.634l3.821-.555a.867.867 0 0 0 .653-.474l1.709-3.462a2.13 2.13 0 0 1 3.82 0l1.709 3.462c.126.256.37.433.653.474l3.82.555a2.13 2.13 0 0 1 1.18 3.634l-2.764 2.695a.867.867 0 0 0-.25.767l.654 3.805a2.13 2.13 0 0 1-3.091 2.246l-3.418-1.797a.867.867 0 0 0-.806 0z" fill="#7AC70C"/></g></g></svg><svg x="0" y="1584" width="82" height="66" viewBox="0 0 82 66" version="1.1" xmlns="http://www.w3.org/2000/svg" xmlns:xlink="http://www.w3.org/1999/xlink"><title>hu</title><g stroke="none" stroke-width="1" fill="none" fill-rule="evenodd"><g fill-rule="nonzero"><path d="M18.563 4h44.874c4.285 0 6.348.399 8.493 1.545a10.904 10.904 0 0 1 4.525 4.525C77.6 12.215 78 14.278 78 18.563v28.874c0 4.285-.399 6.348-1.545 8.493a10.904 10.904 0 0 1-4.525 4.525C69.785 61.6 67.722 62 63.437 62H18.563c-4.285 0-6.348-.399-8.493-1.545a10.904 10.904 0 0 1-4.525-4.525C4.4 53.785 4 51.722 4 47.437V18.563c0-4.285.399-6.348 1.545-8.493a10.904 10.904 0 0 1 4.525-4.525C12.215 4.4 14.278 4 18.563 4z" stroke="#FFF" stroke-width="4" fill="#EEE"/><path d="M76 42v5.437c0 4.368-.455 5.953-1.309 7.55a8.905 8.905 0 0 1-3.704 3.704C69.39 59.545 67.805 60 63.437 60H18.563c-4.368 0-5.953-.455-7.55-1.309a8.905 8.905 0 0 1-3.704-3.704C6.455 53.39 6 51.805 6 47.437V42h70z" fill="#7AC70C"/><path d="M18.563 6h44.874c4.368 0 5.953.455 7.55 1.309a8.905 8.905 0 0 1 3.704 3.704C75.545 12.61 76 14.195 76 18.563V24H6v-5.437c0-4.368.455-5.953 1.309-7.55a8.905 8.905 0 0 1 3.704-3.704C12.61 6.455 14.195 6 18.563 6z" fill="#FF4B4B"/></g></g></svg><svg x="0" y="1650" width="82" height="66" viewBox="0 0 82 66" version="1.1" xmlns="http://www.w3.org/2000/svg" xmlns:xlink="http://www.w3.org/1999/xlink"><title>cy</title><g stroke="none" stroke-width="1" fill="none" fill-rule="evenodd"><g fill-rule="nonzero"><path d="M18.563 4h44.874c4.285 0 6.348.399 8.493 1.545a10.904 10.904 0 0 1 4.525 4.525C77.6 12.215 78 14.278 78 18.563v28.874c0 4.285-.399 6.348-1.545 8.493a10.904 10.904 0 0 1-4.525 4.525C69.785 61.6 67.722 62 63.437 62H18.563c-4.285 0-6.348-.399-8.493-1.545a10.904 10.904 0 0 1-4.525-4.525C4.4 53.785 4 51.722 4 47.437V18.563c0-4.285.399-6.348 1.545-8.493a10.904 10.904 0 0 1 4.525-4.525C12.215 4.4 14.278 4 18.563 4z" stroke="#FFF" stroke-width="4" fill="#EEE"/><path d="M76 33v14.437c0 4.368-.455 5.953-1.309 7.55a8.905 8.905 0 0 1-3.704 3.704C69.39 59.545 67.805 60 63.437 60H18.563c-4.368 0-5.953-.455-7.55-1.309a8.905 8.905 0 0 1-3.704-3.704C6.455 53.39 6 51.805 6 47.437V33h70z" fill="#7AC70C"/><path d="M43.179 20h13.77a2 2 0 0 1 1.834 2.798L55.216 31a18.297 18.297 0 0 1-16.78 11H33a7 7 0 0 1-7-7v-5l10-4v.41a1.59 1.59 0 1 0 3.179 0V24a4 4 0 0 1 4-4z" fill="#FF4B4B"/><path d="M29 18h4a3 3 0 0 1 3 3v9H26v-9a3 3 0 0 1 3-3z" fill="#FF4B4B"/><path d="M24 21h5v5H19a5 5 0 0 1 5-5zM29 18h10a4 4 0 0 1-4 4h-6v-4z" fill="#FF4B4B"/><path d="M25 28c-1.657 0-3-1.79-3-4h10v4h-7zM37 41.908v-5h19.5a2.5 2.5 0 0 0 2.5-2.5V31h5v3.408a7.5 7.5 0 0 1-7.5 7.5H37z" fill="#FF4B4B"/><path d="M62.321 27.054l3.963 5.706a1 1 0 0 1-1.126 1.523l-3.658-1.17-3.658 1.17a1 1 0 0 1-1.126-1.523l3.963-5.706a1 1 0 0 1 1.642 0zM32 44h3a4 4 0 0 1 4 4 1 1 0 0 1-1 1h-9a1 1 0 0 1-1-1 4 4 0 0 1 4-4z" fill="#FF4B4B"/><path fill="#FF4B4B" d="M34 38h5v10h-5zM23.966 37.859v2a4 4 0 0 1-4 4 1 1 0 0 1-1-1v-8a1 1 0 0 1 1-1 4 4 0 0 1 4 4z"/><path fill="#FF4B4B" d="M33.615 35.076l1.294 4.83-14.489 3.882-1.294-4.83zM48 44h4a4 4 0 0 1 4 4 1 1 0 0 1-1 1H45a1 1 0 0 1-1-1 4 4 0 0 1 4-4z"/><path fill="#FF4B4B" d="M46 39.5l4.33-2.5 5 8.66-4.33 2.5z"/></g></g></svg><svg x="0" y="1716" width="82" height="66" viewBox="0 0 82 66" version="1.1" xmlns="http://www.w3.org/2000/svg" xmlns:xlink="http://www.w3.org/1999/xlink"><title>uk</title><g stroke="none" stroke-width="1" fill="none" fill-rule="evenodd"><g fill-rule="nonzero"><path d="M18.563 4h44.874c4.285 0 6.348.399 8.493 1.545a10.904 10.904 0 0 1 4.525 4.525C77.6 12.215 78 14.278 78 18.563v28.874c0 4.285-.399 6.348-1.545 8.493a10.904 10.904 0 0 1-4.525 4.525C69.785 61.6 67.722 62 63.437 62H18.563c-4.285 0-6.348-.399-8.493-1.545a10.904 10.904 0 0 1-4.525-4.525C4.4 53.785 4 51.722 4 47.437V18.563c0-4.285.399-6.348 1.545-8.493a10.904 10.904 0 0 1 4.525-4.525C12.215 4.4 14.278 4 18.563 4z" stroke="#FFF" stroke-width="4" fill="#1CB0F6"/><path d="M76 33v14.437c0 4.368-.455 5.953-1.309 7.55a8.905 8.905 0 0 1-3.704 3.704C69.39 59.545 67.805 60 63.437 60H18.563c-4.368 0-5.953-.455-7.55-1.309a8.905 8.905 0 0 1-3.704-3.704C6.455 53.39 6 51.805 6 47.437V33h70z" fill="#FFC300"/></g></g></svg><svg x="0" y="1782" width="82" height="66" viewBox="0 0 82 66" version="1.1" xmlns="http://www.w3.org/2000/svg" xmlns:xlink="http://www.w3.org/1999/xlink"><title>kl</title><g stroke="none" stroke-width="1" fill="none" fill-rule="evenodd"><g transform="translate(6 6)" fill-rule="nonzero"><path d="M12.563-2h44.874c4.285 0 6.348.399 8.493 1.545a10.904 10.904 0 0 1 4.525 4.525C71.6 6.215 72 8.278 72 12.563v28.874c0 4.285-.399 6.348-1.545 8.493a10.904 10.904 0 0 1-4.525 4.525C63.785 55.6 61.722 56 57.437 56H12.563c-4.285 0-6.348-.399-8.493-1.545A10.904 10.904 0 0 1-.455 49.93C-1.6 47.785-2 45.722-2 41.437V12.563c0-4.285.399-6.348 1.545-8.493A10.904 10.904 0 0 1 4.07-.455C6.215-1.6 8.278-2 12.563-2z" stroke="#FFF" stroke-width="4" fill="#FF4B4B"/><circle fill="#EEE" cx="35" cy="27" r="16"/><path d="M36.838 9.398l4.936 16.817a2.7 2.7 0 0 1-.673 2.66l-4.071 4.111a2.7 2.7 0 0 1-3.837 0l-4.072-4.11a2.7 2.7 0 0 1-.672-2.661l4.935-16.817a1.8 1.8 0 0 1 3.454 0zM26.902 30.121c.518.604 4.414 4.52 5.048 5.087.943.844.312 2.405-.953 2.355-2.844-.11-5.288.83-7.348 2.478-.688.55-1.28 1.14-1.773 1.727a7.73 7.73 0 0 0-.554.725 1.35 1.35 0 0 1-1.975.336c-4.023-3.175-.984-11.148 6.17-13.13a1.35 1.35 0 0 1 1.385.422zM38.144 36.656c-.09-.116-.197-.26-.33-.437a1.179 1.179 0 0 1 .452-1.29 60.55 60.55 0 0 0 .721-.713 2984.009 2984.009 0 0 0 1.873-1.895l.016-.017c1.632-1.653 2.393-2.415 2.713-2.702a1.215 1.215 0 0 1 1.951.488c.778 2.127 2.213 3.635 4.074 4.646.658.358 1.322.626 1.956.816.37.11.637.169.763.188.787.122 1.246.956.928 1.686-.838 1.924-3.229 3.403-5.943 3.614-3.174.246-6.44-1.17-9.238-4.327l.064-.057zm1.094-1.947c.064.014.128.032.19.057a.581.581 0 0 0-.19-.057z" fill="#4B4B4B"/></g></g></svg><svg x="0" y="1848" width="82" height="66" viewBox="0 0 82 66" version="1.1" xmlns="http://www.w3.org/2000/svg" xmlns:xlink="http://www.w3.org/1999/xlink"><title>cs</title><g stroke="none" stroke-width="1" fill="none" fill-rule="evenodd"><g fill-rule="nonzero"><path d="M18.563 4h44.874c4.285 0 6.348.399 8.493 1.545a10.904 10.904 0 0 1 4.525 4.525C77.6 12.215 78 14.278 78 18.563v28.874c0 4.285-.399 6.348-1.545 8.493a10.904 10.904 0 0 1-4.525 4.525C69.785 61.6 67.722 62 63.437 62H18.563c-4.285 0-6.348-.399-8.493-1.545a10.904 10.904 0 0 1-4.525-4.525C4.4 53.785 4 51.722 4 47.437V18.563c0-4.285.399-6.348 1.545-8.493a10.904 10.904 0 0 1 4.525-4.525C12.215 4.4 14.278 4 18.563 4z" stroke="#FFF" stroke-width="4" fill="#EEE"/><path d="M76 33v14.437c0 4.368-.455 5.953-1.309 7.55a8.905 8.905 0 0 1-3.704 3.704C69.39 59.545 67.805 60 63.437 60H18.563c-4.368 0-5.953-.455-7.55-1.309a8.905 8.905 0 0 1-3.704-3.704C6.455 53.39 6 51.805 6 47.437V33h70z" fill="#FF4B4B"/><path d="M9.267 57.48a8.946 8.946 0 0 1-1.958-2.493C6.455 53.39 6 51.805 6 47.437V18.563c0-4.368.455-5.953 1.309-7.55A8.946 8.946 0 0 1 9.267 8.52L41 33 9.267 57.48z" fill="#1CB0F6"/></g></g></svg><svg x="0" y="1914" width="82" height="66" viewBox="0 0 82 66" version="1.1" xmlns="http://www.w3.org/2000/svg" xmlns:xlink="http://www.w3.org/1999/xlink"><title>hi</title><g stroke="none" stroke-width="1" fill="none" fill-rule="evenodd"><g fill-rule="nonzero"><path d="M18.563 4h44.874c4.285 0 6.348.399 8.493 1.545a10.904 10.904 0 0 1 4.525 4.525C77.6 12.215 78 14.278 78 18.563v28.874c0 4.285-.399 6.348-1.545 8.493a10.904 10.904 0 0 1-4.525 4.525C69.785 61.6 67.722 62 63.437 62H18.563c-4.285 0-6.348-.399-8.493-1.545a10.904 10.904 0 0 1-4.525-4.525C4.4 53.785 4 51.722 4 47.437V18.563c0-4.285.399-6.348 1.545-8.493a10.904 10.904 0 0 1 4.525-4.525C12.215 4.4 14.278 4 18.563 4z" stroke="#FFF" stroke-width="4" fill="#EEE"/><path d="M18.563 6h44.874c4.368 0 5.953.455 7.55 1.309a8.905 8.905 0 0 1 3.704 3.704C75.545 12.61 76 14.195 76 18.563V22H6v-3.437c0-4.368.455-5.953 1.309-7.55a8.905 8.905 0 0 1 3.704-3.704C12.61 6.455 14.195 6 18.563 6z" fill="#FF9600"/><path d="M76 44v3.437c0 4.368-.455 5.953-1.309 7.55a8.905 8.905 0 0 1-3.704 3.704C69.39 59.545 67.805 60 63.437 60H18.563c-4.368 0-5.953-.455-7.55-1.309a8.905 8.905 0 0 1-3.704-3.704C6.455 53.39 6 51.805 6 47.437V44h70z" fill="#7AC70C"/><path d="M41 41a8 8 0 1 1 0-16 8 8 0 0 1 0 16zm0-4a4 4 0 1 0 0-8 4 4 0 0 0 0 8z" fill="#1CB0F6"/></g></g></svg><svg x="0" y="1980" width="82" height="66" viewBox="0 0 82 66" version="1.1" xmlns="http://www.w3.org/2000/svg" xmlns:xlink="http://www.w3.org/1999/xlink"><title>id</title><g stroke="none" stroke-width="1" fill="none" fill-rule="evenodd"><g fill-rule="nonzero"><path d="M18.563 4h44.874c4.285 0 6.348.399 8.493 1.545a10.904 10.904 0 0 1 4.525 4.525C77.6 12.215 78 14.278 78 18.563v28.874c0 4.285-.399 6.348-1.545 8.493a10.904 10.904 0 0 1-4.525 4.525C69.785 61.6 67.722 62 63.437 62H18.563c-4.285 0-6.348-.399-8.493-1.545a10.904 10.904 0 0 1-4.525-4.525C4.4 53.785 4 51.722 4 47.437V18.563c0-4.285.399-6.348 1.545-8.493a10.904 10.904 0 0 1 4.525-4.525C12.215 4.4 14.278 4 18.563 4z" stroke="#FFF" stroke-width="4" fill="#FF4B4B"/><path d="M76 33v14.437c0 4.368-.455 5.953-1.309 7.55a8.905 8.905 0 0 1-3.704 3.704C69.39 59.545 67.805 60 63.437 60H18.563c-4.368 0-5.953-.455-7.55-1.309a8.905 8.905 0 0 1-3.704-3.704C6.455 53.39 6 51.805 6 47.437V33h70z" fill="#EEE"/></g></g></svg><svg x="0" y="2046" width="82" height="66" viewBox="0 0 82 66" version="1.1" xmlns="http://www.w3.org/2000/svg" xmlns:xlink="http://www.w3.org/1999/xlink"><title>ha</title><g stroke="none" stroke-width="1" fill="none" fill-rule="evenodd"><g><path d="M18.563 4h44.874c4.285 0 6.348.399 8.493 1.545a10.904 10.904 0 0 1 4.525 4.525C77.6 12.215 78 14.278 78 18.563v28.874c0 4.285-.399 6.348-1.545 8.493a10.904 10.904 0 0 1-4.525 4.525C69.785 61.6 67.722 62 63.437 62H18.563c-4.285 0-6.348-.399-8.493-1.545a10.904 10.904 0 0 1-4.525-4.525C4.4 53.785 4 51.722 4 47.437V18.563c0-4.285.399-6.348 1.545-8.493a10.904 10.904 0 0 1 4.525-4.525C12.215 4.4 14.278 4 18.563 4z" stroke="#FFF" stroke-width="4" fill="#EEE" fill-rule="nonzero"/><path fill="#FF4B4B" d="M6 15h70v9H6z"/><path fill="#1899D6" d="M6 24h70v9H6z"/><path fill="#1899D6" fill-rule="nonzero" d="M6 6h39v27H6z"/><path fill="#EEE" fill-rule="nonzero" d="M10.692 6L20 12.763V6h3v8.943l2.481 1.802L28 14.915V6h3v6.736L40.271 6H45v2.745L37.766 14H45v3H33.637l-3.902 2.835L32.714 22H45v3h-8.157L45 30.926V33h-5.653L31 26.935V33h-3v-8.244l-2.519-1.83L23 24.728V33h-3v-6.092L11.615 33H6v-2.1l8.12-5.9H6v-3h12.249l2.98-2.165L17.324 17H6v-3h7.196L6 8.772V6z"/><path d="M75.848 51c-.198 1.87-.59 2.925-1.157 3.987a8.905 8.905 0 0 1-3.704 3.704C69.39 59.545 67.805 60 63.437 60H18.563c-4.368 0-5.953-.455-7.55-1.309a8.905 8.905 0 0 1-3.704-3.704C6.741 53.925 6.35 52.87 6.152 51h69.696z" fill="#1899D6" fill-rule="nonzero"/><path d="M76 47.437c0 1.466-.051 2.618-.152 3.563H6.152c-.1-.945-.152-2.097-.152-3.563V42h70v5.437zM28 17h17v5H28v11h-5V22H6v-5h17V6h5z" fill="#FF4B4B" fill-rule="nonzero"/></g></g></svg><svg x="0" y="2112" width="82" height="66" viewBox="0 0 82 66" version="1.1" xmlns="http://www.w3.org/2000/svg" xmlns:xlink="http://www.w3.org/1999/xlink"><title>nv</title><g stroke="none" stroke-width="1" fill="none" fill-rule="evenodd"><g fill-rule="nonzero"><path d="M18.563 4h44.874c4.285 0 6.348.399 8.493 1.545a10.904 10.904 0 0 1 4.525 4.525C77.6 12.215 78 14.278 78 18.563v28.874c0 4.285-.399 6.348-1.545 8.493a10.904 10.904 0 0 1-4.525 4.525C69.785 61.6 67.722 62 63.437 62H18.563c-4.285 0-6.348-.399-8.493-1.545a10.904 10.904 0 0 1-4.525-4.525C4.4 53.785 4 51.722 4 47.437V18.563c0-4.285.399-6.348 1.545-8.493a10.904 10.904 0 0 1 4.525-4.525C12.215 4.4 14.278 4 18.563 4z" stroke="#FFF" stroke-width="4" fill="#FFCE8E"/><path d="M39.961 18.979l-.564 8.683a1.111 1.111 0 0 1-1.199 1.035l-1.899-.155a1.111 1.111 0 0 0-.97 1.786l1.18 1.53c.341.442.302 1.068-.091 1.463l-1.387 1.393a1.111 1.111 0 0 0 .755 1.895l2.054.06c.414.013.786.254.967.626l1.211 2.495a1.111 1.111 0 0 0 1.992.014l1.26-2.503c.19-.375.573-.611.993-.611h1.751a1.111 1.111 0 0 0 .851-1.826l-1.356-1.616a1.111 1.111 0 0 1-.092-1.302l1.065-1.71a1.111 1.111 0 0 0-1.045-1.693l-1.558.144a1.111 1.111 0 0 1-1.208-1.005v-.002l-.785-8.674c-.03-.335.092-.665.333-.898l3.122-3.027a1.667 1.667 0 0 1 2.724.621l1.316 3.574a1.667 1.667 0 0 0 1.494 1.09l4.208.176a1.667 1.667 0 0 1 1.537 2.11l-1.145 4.13c-.178.643.045 1.33.566 1.747l3.33 2.661a1.667 1.667 0 0 1 0 2.604l-3.33 2.661a1.667 1.667 0 0 0-.566 1.747l1.145 4.13a1.667 1.667 0 0 1-1.537 2.11l-4.208.177a1.667 1.667 0 0 0-1.494 1.09l-1.468 3.988a1.667 1.667 0 0 1-2.493.808l-3.491-2.343a1.667 1.667 0 0 0-1.858 0l-3.49 2.343a1.667 1.667 0 0 1-2.494-.808l-1.468-3.989a1.667 1.667 0 0 0-1.494-1.09l-4.208-.175a1.667 1.667 0 0 1-1.537-2.11l1.145-4.13a1.667 1.667 0 0 0-.566-1.748l-3.33-2.66a1.667 1.667 0 0 1 0-2.605l3.33-2.66a1.667 1.667 0 0 0 .566-1.748l-1.145-4.13a1.667 1.667 0 0 1 1.537-2.11l4.208-.176a1.667 1.667 0 0 0 1.494-1.09l1.3-3.531a1.667 1.667 0 0 1 2.743-.602l2.977 2.979c.226.226.343.538.322.857z" fill="#4B4B4B"/><path d="M27.5 33.06c0-6.207 4.168-11.627 10.096-13.179.461-.12.91.23.905.707l-.039 3.532a.722.722 0 0 1-.471.67c-3.418 1.264-5.713 4.57-5.713 8.27 0 4.867 3.906 8.809 8.722 8.809 4.816 0 8.722-3.942 8.722-8.808 0-3.711-2.308-7.023-5.738-8.281a.722.722 0 0 1-.474-.673l-.027-3.526a.722.722 0 0 1 .904-.704C50.323 21.422 54.5 26.847 54.5 33.06c0 7.518-6.043 13.616-13.5 13.616S27.5 40.579 27.5 33.06z" fill="#FF4B4B"/></g></g></svg><svg x="0" y="2178" width="82" height="66" viewBox="0 0 82 66" version="1.1" xmlns="http://www.w3.org/2000/svg" xmlns:xlink="http://www.w3.org/1999/xlink"><title>ar</title><g stroke="none" stroke-width="1" fill="none" fill-rule="evenodd"><g fill-rule="nonzero"><path d="M18.563 4h44.874c4.285 0 6.348.399 8.493 1.545a10.904 10.904 0 0 1 4.525 4.525C77.6 12.215 78 14.278 78 18.563v28.874c0 4.285-.399 6.348-1.545 8.493a10.904 10.904 0 0 1-4.525 4.525C69.785 61.6 67.722 62 63.437 62H18.563c-4.285 0-6.348-.399-8.493-1.545a10.904 10.904 0 0 1-4.525-4.525C4.4 53.785 4 51.722 4 47.437V18.563c0-4.285.399-6.348 1.545-8.493a10.904 10.904 0 0 1 4.525-4.525C12.215 4.4 14.278 4 18.563 4z" stroke="#FFF" stroke-width="4" fill="#EEE"/><path d="M76 46v1.437c0 4.368-.455 5.953-1.309 7.55a8.905 8.905 0 0 1-3.704 3.704C69.39 59.545 67.805 60 63.437 60H18.563c-4.368 0-5.953-.455-7.55-1.309a8.905 8.905 0 0 1-3.704-3.704C6.455 53.39 6 51.805 6 47.437V46h70z" fill="#4B4B4B"/><path d="M36.486 23h5.625c1.227 0 2.222.995 2.222 2.222v3.334h4.445c1.227 0 2.222.994 2.222 2.222v6.793a2.222 2.222 0 0 1-3.514 1.808l-3.578-2.555 1.32 3.078A2.222 2.222 0 0 1 43.185 43h-4.37a2.222 2.222 0 0 1-2.043-3.098l1.32-3.078-3.578 2.555A2.222 2.222 0 0 1 31 37.571v-6.793c0-1.228.995-2.222 2.222-2.222h4.445v-1.97l-1.904-1.631A1.111 1.111 0 0 1 36.486 23z" fill="#FFD300"/><path d="M18.563 6h44.874c4.368 0 5.953.455 7.55 1.309a8.905 8.905 0 0 1 3.704 3.704C75.545 12.61 76 14.195 76 18.563V20H6v-1.437c0-4.368.455-5.953 1.309-7.55a8.905 8.905 0 0 1 3.704-3.704C12.61 6.455 14.195 6 18.563 6z" fill="#FF4B4B"/></g></g></svg><svg x="0" y="2244" width="82" height="66" viewBox="0 0 82 66" version="1.1" xmlns="http://www.w3.org/2000/svg" xmlns:xlink="http://www.w3.org/1999/xlink"><title>ca</title><g stroke="none" stroke-width="1" fill="none" fill-rule="evenodd"><g fill-rule="nonzero"><path d="M18.563 4h44.874c4.285 0 6.348.399 8.493 1.545a10.904 10.904 0 0 1 4.525 4.525C77.6 12.215 78 14.278 78 18.563v28.874c0 4.285-.399 6.348-1.545 8.493a10.904 10.904 0 0 1-4.525 4.525C69.785 61.6 67.722 62 63.437 62H18.563c-4.285 0-6.348-.399-8.493-1.545a10.904 10.904 0 0 1-4.525-4.525C4.4 53.785 4 51.722 4 47.437V18.563c0-4.285.399-6.348 1.545-8.493a10.904 10.904 0 0 1 4.525-4.525C12.215 4.4 14.278 4 18.563 4z" stroke="#FFF" stroke-width="4" fill="#FFD300"/><path d="M75.977 49c-.101 3.216-.542 4.596-1.286 5.987a8.905 8.905 0 0 1-3.704 3.704C69.39 59.545 67.805 60 63.437 60H18.563c-4.368 0-5.953-.455-7.55-1.309a8.905 8.905 0 0 1-3.704-3.704c-.744-1.39-1.185-2.771-1.286-5.987h69.954zM76 28v11H6V28zM18.563 6h44.874c4.368 0 5.953.455 7.55 1.309a8.905 8.905 0 0 1 3.704 3.704c.744 1.39 1.185 2.771 1.286 5.987H6.023c.101-3.216.542-4.596 1.286-5.987a8.905 8.905 0 0 1 3.704-3.704C12.61 6.455 14.195 6 18.563 6z" fill="#FF4B4B"/></g></g></svg><svg x="0" y="2310" width="82" height="66" viewBox="0 0 82 66" version="1.1" xmlns="http://www.w3.org/2000/svg" xmlns:xlink="http://www.w3.org/1999/xlink"><title>th</title><g stroke="none" stroke-width="1" fill="none" fill-rule="evenodd"><g><path d="M18.563 6h44.874c4.368 0 5.953.455 7.55 1.309a8.905 8.905 0 0 1 3.704 3.704C75.545 12.61 76 14.195 76 18.563v28.874c0 4.368-.455 5.953-1.309 7.55a8.905 8.905 0 0 1-3.704 3.704C69.39 59.545 67.805 60 63.437 60H18.563c-4.368 0-5.953-.455-7.55-1.309a8.905 8.905 0 0 1-3.704-3.704C6.455 53.39 6 51.805 6 47.437V18.563c0-4.368.455-5.953 1.309-7.55a8.905 8.905 0 0 1 3.704-3.704C12.61 6.455 14.195 6 18.563 6z" fill="#EEE" fill-rule="nonzero"/><path d="M18.563 4h44.874c4.285 0 6.348.399 8.493 1.545a10.904 10.904 0 0 1 4.525 4.525C77.6 12.215 78 14.278 78 18.563v28.874c0 4.285-.399 6.348-1.545 8.493a10.904 10.904 0 0 1-4.525 4.525C69.785 61.6 67.722 62 63.437 62H18.563c-4.285 0-6.348-.399-8.493-1.545a10.904 10.904 0 0 1-4.525-4.525C4.4 53.785 4 51.722 4 47.437V18.563c0-4.285.399-6.348 1.545-8.493a10.904 10.904 0 0 1 4.525-4.525C12.215 4.4 14.278 4 18.563 4z" stroke="#FFF" stroke-width="4" fill="#EEE" fill-rule="nonzero"/><path d="M75.712 52c-.22 1.279-.563 2.13-1.021 2.987a8.905 8.905 0 0 1-3.704 3.704C69.39 59.545 67.805 60 63.437 60H18.563c-4.368 0-5.953-.455-7.55-1.309a8.905 8.905 0 0 1-3.704-3.704c-.458-.856-.8-1.708-1.02-2.987h69.423z" fill="#FF4B4B" fill-rule="nonzero"/><path fill="#1CB0F6" d="M76 22v22H6V22z"/><path d="M18.563 6h44.874c4.368 0 5.953.455 7.55 1.309a8.905 8.905 0 0 1 3.704 3.704c.458.856.8 1.708 1.02 2.987H6.289c.22-1.279.563-2.13 1.021-2.987a8.905 8.905 0 0 1 3.704-3.704C12.61 6.455 14.195 6 18.563 6z" fill="#FF4B4B" fill-rule="nonzero"/></g></g></svg><svg x="0" y="2376" width="82" height="66" viewBox="0 0 82 66" version="1.1" xmlns="http://www.w3.org/2000/svg" xmlns:xlink="http://www.w3.org/1999/xlink"><title>gn</title><g stroke="none" stroke-width="1" fill="none" fill-rule="evenodd"><g transform="translate(6 6)"><path d="M12.563-2h44.874c4.285 0 6.348.399 8.493 1.545a10.904 10.904 0 0 1 4.525 4.525C71.6 6.215 72 8.278 72 12.563v28.874c0 4.285-.399 6.348-1.545 8.493a10.904 10.904 0 0 1-4.525 4.525C63.785 55.6 61.722 56 57.437 56H12.563c-4.285 0-6.348-.399-8.493-1.545A10.904 10.904 0 0 1-.455 49.93C-1.6 47.785-2 45.722-2 41.437V12.563c0-4.285.399-6.348 1.545-8.493A10.904 10.904 0 0 1 4.07-.455C6.215-1.6 8.278-2 12.563-2z" stroke="#FFF" stroke-width="4" fill="#EEE" fill-rule="nonzero"/><path d="M70 38v3.437c0 4.368-.455 5.953-1.309 7.55a8.905 8.905 0 0 1-3.704 3.704C63.39 53.545 61.805 54 57.437 54H12.563c-4.368 0-5.953-.455-7.55-1.309a8.905 8.905 0 0 1-3.704-3.704C.455 47.39 0 45.805 0 41.437V38h70z" fill="#1CB0F6" fill-rule="nonzero"/><path d="M12.563 0h44.874c4.368 0 5.953.455 7.55 1.309a8.905 8.905 0 0 1 3.704 3.704C69.545 6.61 70 8.195 70 12.563V16H0v-3.437c0-4.368.455-5.953 1.309-7.55A8.905 8.905 0 0 1 5.013 1.31C6.61.455 8.195 0 12.563 0zM35 36a9 9 0 1 1 0-18 9 9 0 0 1 0 18zm0-4a5 5 0 1 0 0-10 5 5 0 0 0 0 10z" fill="#FF4B4B" fill-rule="nonzero"/><circle fill="#1CB0F6" cx="35" cy="27" r="3"/></g></g></svg><svg x="0" y="2442" width="82" height="66" viewBox="0 0 82 66" version="1.1" xmlns="http://www.w3.org/2000/svg" xmlns:xlink="http://www.w3.org/1999/xlink"><title>ambassador</title><g stroke="none" stroke-width="1" fill="none" fill-rule="evenodd"><g><path d="M18.563 4h44.874c4.285 0 6.348.399 8.493 1.545a10.904 10.904 0 0 1 4.525 4.525C77.6 12.215 78 14.278 78 18.563v28.874c0 4.285-.399 6.348-1.545 8.493a10.904 10.904 0 0 1-4.525 4.525C69.785 61.6 67.722 62 63.437 62H18.563c-4.285 0-6.348-.399-8.493-1.545a10.904 10.904 0 0 1-4.525-4.525C4.4 53.785 4 51.722 4 47.437V18.563c0-4.285.399-6.348 1.545-8.493a10.904 10.904 0 0 1 4.525-4.525C12.215 4.4 14.278 4 18.563 4z" stroke="#FFF" stroke-width="4" fill="#FFC800" fill-rule="nonzero"/><path d="M12.661 6.08c.411-.029.897-.055 1.458-.08h23.425l6.26 3.443-6.26 8.155-2.503 9.497-6.965-4.815v6.989l22.762 9.583-15.712 20.576H31.55l1.502-12.069-6.295-5.634v-8.292l-8.309-8.294L10 11.5l2.661-5.42zM60.682 6h2.755c4.368 0 5.953.455 7.55 1.309a8.905 8.905 0 0 1 3.704 3.704C75.545 12.61 76 14.195 76 18.563v28.874c0 3.409-.277 5.122-.805 6.47L69.4 52l-1.344-13-8.697-5.567v-12.97h8.296l-4.148-6.423h-5.913L60.682 6z" fill="#FF9600"/></g></g></svg><svg x="0" y="2508" width="82" height="66" viewBox="0 0 82 66" version="1.1" xmlns="http://www.w3.org/2000/svg" xmlns:xlink="http://www.w3.org/1999/xlink"><title>duolingo</title><g stroke="none" stroke-width="1" fill="none" fill-rule="evenodd"><g><path d="M18.563 4h44.874c4.285 0 6.348.399 8.493 1.545a10.904 10.904 0 0 1 4.525 4.525C77.6 12.215 78 14.278 78 18.563v28.874c0 4.285-.399 6.348-1.545 8.493a10.904 10.904 0 0 1-4.525 4.525C69.785 61.6 67.722 62 63.437 62H18.563c-4.285 0-6.348-.399-8.493-1.545a10.904 10.904 0 0 1-4.525-4.525C4.4 53.785 4 51.722 4 47.437V18.563c0-4.285.399-6.348 1.545-8.493a10.904 10.904 0 0 1 4.525-4.525C12.215 4.4 14.278 4 18.563 4z" stroke="#FFF" stroke-width="4" fill="#78C800" fill-rule="nonzero"/><g><g><g transform="translate(10.903 11.55)"><path d="M24.163 12.014a1.81 1.81 0 0 1-.502 2.89c-3.676 1.784-8.138.975-11.033-2.02-2.895-2.996-3.549-7.481-1.636-11.09.576-1.084 1.831-1.281 2.69-.396l10.48 10.616z" fill="#8EE000" fill-rule="nonzero"/><path d="M22.97 10.84c3.664 3.698 10.125 3.698 14.207 0 4.081-3.698-.614 21.536-.614 21.471 0-.03-2.181-.04-6.544-.026-1.17.003-3.277.012-6.321.026-2.929-16.78-3.171-23.936-.728-21.471z" fill="#8EE000"/><path d="M8.074 5.332l9.888 10.972a1.81 1.81 0 0 1-.603 2.87c-3.735 1.655-8.167.691-10.955-2.403-2.79-3.095-3.286-7.6-1.248-11.14.614-1.065 2.092-1.216 2.918-.299z" fill="#8EE000" fill-rule="nonzero"/><g fill="#8EE000" fill-rule="nonzero"><path d="M36.035 12.014a1.81 1.81 0 0 0 .502 2.89c3.676 1.784 8.138.975 11.033-2.02 2.895-2.996 3.549-7.481 1.636-11.09-.576-1.084-1.831-1.281-2.69-.396l-10.48 10.616z"/><path d="M52.123 5.332l-9.887 10.972a1.81 1.81 0 0 0 .603 2.87c3.735 1.655 8.167.691 10.955-2.403 2.79-3.095 3.286-7.6 1.248-11.14-.614-1.065-2.092-1.216-2.919-.299z"/></g><path d="M13.148 6.991h.576c7.261 0 13.148 5.887 13.148 13.148v6.779c0 7.261-5.887 13.148-13.148 13.148h-.576C5.887 40.066 0 34.179 0 26.918v-6.779C0 12.878 5.887 6.991 13.148 6.991zM46.473 6.991h.46c7.262 0 13.148 5.886 13.148 13.147v6.781c0 7.26-5.886 13.147-13.147 13.147h-.408c-7.22 0-13.089-5.823-13.146-13.043l-.054-6.781c-.057-7.26 5.782-13.193 13.043-13.25h.104z" fill="#8EE000"/><path d="M13.964 11.666a9.153 9.153 0 0 1 9.153 9.153v5.419a9.153 9.153 0 0 1-18.306 0v-5.42a9.153 9.153 0 0 1 9.153-9.152zM46.117 11.666a9.153 9.153 0 0 1 9.152 9.153v5.419a9.153 9.153 0 1 1-18.306 0v-5.42a9.153 9.153 0 0 1 9.154-9.152z" fill="#FFF"/><path d="M15.372 16.925a4.342 4.342 0 0 1 4.342 4.342v4.64a4.342 4.342 0 0 1-8.684 0v-4.64a4.342 4.342 0 0 1 4.342-4.342z" fill="#4B4B4B"/><g><g><path d="M30.099 27.454a4.975 4.975 0 0 1 4.975 4.975v1.726a4.975 4.975 0 0 1-9.95 0V32.43a4.975 4.975 0 0 1 4.975-4.975z" fill="#F48000"/><path d="M23.234 32.901c.594-3.167 3.534-5.457 7.054-5.457 3.201 0 6.093 2.345 6.676 5.457v.254c0 .196-.07.28-.252.254l-6.424 1.142h-.378l-6.424-1.142c-.181.025-.252-.058-.252-.254v-.254z" fill="#FFC200" fill-rule="nonzero"/><path d="M29.046 28.542a4.31 4.31 0 0 1 1.023-.123c.37 0 .74.048 1.11.142a1.69 1.69 0 0 1 1.27 1.638c0 .62-.502 1.123-1.123 1.123h-2.458c-.62 0-1.124-.503-1.124-1.123 0-.786.538-1.47 1.302-1.657z" fill="#FFE747"/></g></g><path d="M44.708 16.925a4.342 4.342 0 0 1 4.342 4.342v4.64a4.342 4.342 0 1 1-8.684 0v-4.64a4.342 4.342 0 0 1 4.342-4.342z" fill="#4B4B4B"/><ellipse fill="#FFF" cx="11.704" cy="19.4" rx="2.805" ry="2.793"/><ellipse fill="#FFF" cx="40.612" cy="19.4" rx="2.805" ry="2.793"/></g></g></g></g></g></svg><svg x="0" y="2574" width="82" height="66" viewBox="0 0 82 66" version="1.1" xmlns="http://www.w3.org/2000/svg" xmlns:xlink="http://www.w3.org/1999/xlink"><title>troubleshooting</title><g stroke="none" stroke-width="1" fill="none" fill-rule="evenodd"><g fill-rule="nonzero"><path d="M18.563 4h44.874c4.285 0 6.348.399 8.493 1.545a10.904 10.904 0 0 1 4.525 4.525C77.6 12.215 78 14.278 78 18.563v28.874c0 4.285-.399 6.348-1.545 8.493a10.904 10.904 0 0 1-4.525 4.525C69.785 61.6 67.722 62 63.437 62H18.563c-4.285 0-6.348-.399-8.493-1.545a10.904 10.904 0 0 1-4.525-4.525C4.4 53.785 4 51.722 4 47.437V18.563c0-4.285.399-6.348 1.545-8.493a10.904 10.904 0 0 1 4.525-4.525C12.215 4.4 14.278 4 18.563 4z" stroke="#FFF" stroke-width="4" fill="#1CB0F6"/><g transform="scale(-1 1) rotate(45 -25.52 -27.47)"><rect fill="#C7C7C7" x="4.455" y="7.763" width="4.455" height="35.527" rx="2.227"/><path d="M11.27 27.297A6.681 6.681 0 0 1 14 32.691v10.618A6.69 6.69 0 0 1 7.31 50h-.62A6.69 6.69 0 0 1 0 43.31V32.69a6.681 6.681 0 0 1 2.73-5.393h-.298A2.432 2.432 0 0 1 0 24.865v-.76c0-.924.749-1.673 1.673-1.673h10.654c.924 0 1.673.75 1.673 1.673v.76a2.432 2.432 0 0 1-2.432 2.432h-.299z" fill="#F34848"/><path d="M5.458.373h2.66c.377 0 .708.254.807.618l1.76 6.506a.836.836 0 0 1-.06.594L8.99 11.347a.836.836 0 0 1-.747.46H5.334a.836.836 0 0 1-.748-.46L2.95 8.09a.836.836 0 0 1-.06-.594L4.65.991a.836.836 0 0 1 .808-.618z" fill="#C7C7C7"/><rect fill="#D73A3A" x="5.916" y="29.758" width="2.333" height="16.916" rx="1.167"/><rect fill="#D73A3A" x="9.758" y="31.416" width="2.333" height="13.275" rx="1.167"/><rect fill="#D73A3A" x="1.697" y="31.416" width="2.333" height="13.275" rx="1.167"/></g><g transform="rotate(45 10.515 64.213)"><path d="M7.589 12.262H13.1a3.168 3.168 0 0 1 3.168 3.168v22.01a5.924 5.924 0 1 1-11.848 0V15.43a3.168 3.168 0 0 1 3.168-3.168zm2.756 22.463a2.536 2.536 0 0 0-2.518 2.843l.054.447a2.488 2.488 0 0 0 2.817 2.164 2.917 2.917 0 0 0 2.51-2.89v-.014a2.55 2.55 0 0 0-2.55-2.55h-.313z" fill="#D8D8D8"/><rect fill="#C7C7C7" x="8.406" y="14.581" width="3.188" height="16.371" rx="1.594"/><path d="M16.262.75A9.4 9.4 0 0 1 10.6 17.653H9.4A9.4 9.4 0 0 1 3.738.75l.76-.444a.864.864 0 0 1 1.3.747v8.324c0 .795.644 1.44 1.44 1.44h5.525a1.44 1.44 0 0 0 1.44-1.44V1.053a.864.864 0 0 1 1.3-.747l.76.444z" fill="#D8D8D8"/></g></g></g></svg><svg x="0" y="2640" width="82" height="66" viewBox="0 0 82 66" version="1.1" xmlns="http://www.w3.org/2000/svg"><title>teachers</title><g stroke="none" stroke-width="1" fill="none" fill-rule="evenodd"><g><path d="M18.563 4h44.874c4.285 0 6.348.399 8.493 1.545a10.904 10.904 0 0 1 4.525 4.525C77.6 12.215 78 14.278 78 18.563v28.874c0 4.285-.399 6.348-1.545 8.493a10.904 10.904 0 0 1-4.525 4.525C69.785 61.6 67.722 62 63.437 62H18.563c-4.285 0-6.348-.399-8.493-1.545a10.904 10.904 0 0 1-4.525-4.525C4.4 53.785 4 51.722 4 47.437V18.563c0-4.285.399-6.348 1.545-8.493a10.904 10.904 0 0 1 4.525-4.525C12.215 4.4 14.278 4 18.563 4z" stroke="#FFF" stroke-width="4" fill="#78C800" fill-rule="nonzero"/><path d="M18.563 4h44.874c4.285 0 6.348.399 8.493 1.545a10.904 10.904 0 0 1 4.525 4.525C77.6 12.215 78 14.278 78 18.563v28.874c0 4.285-.399 6.348-1.545 8.493a10.904 10.904 0 0 1-4.525 4.525C69.785 61.6 67.722 62 63.437 62H18.563c-4.285 0-6.348-.399-8.493-1.545a10.904 10.904 0 0 1-4.525-4.525C4.4 53.785 4 51.722 4 47.437V18.563c0-4.285.399-6.348 1.545-8.493a10.904 10.904 0 0 1 4.525-4.525C12.215 4.4 14.278 4 18.563 4z" stroke="#FFF" stroke-width="4" fill="#78C800" fill-rule="nonzero"/><g><g><path d="M53.311 15.911H51.07a1.53 1.53 0 0 0-1.523 1.539c0 .85.682 1.538 1.523 1.538h2.242a1.53 1.53 0 0 0 1.523-1.538 1.53 1.53 0 0 0-1.523-1.539M53.273 20.202h-2.166a.885.885 0 0 0-.88.89c0 .49.393.889.88.889h2.166c.486 0 .88-.398.88-.889a.885.885 0 0 0-.88-.89" fill="#A560E8"/><path d="M53.273 35.345h-2.166a.885.885 0 0 0-.88.89c0 .49.393.889.88.889h2.166c.486 0 .88-.398.88-.89a.885.885 0 0 0-.88-.889" fill="#8F50D8"/><path d="M35.134 15.911h-2.242a1.53 1.53 0 0 0-1.523 1.539c0 .85.682 1.538 1.523 1.538h2.242a1.53 1.53 0 0 0 1.523-1.538 1.53 1.53 0 0 0-1.523-1.539M35.097 20.202H32.93a.885.885 0 0 0-.88.89c0 .49.393.889.88.889h2.167c.485 0 .88-.398.88-.889a.885.885 0 0 0-.88-.89" fill="#FFD836"/><path d="M34.484 32.01h-.942a1.5 1.5 0 0 0-1.492 1.509v2.097a1.5 1.5 0 0 0 1.492 1.508h.942a1.5 1.5 0 0 0 1.493-1.508v-2.097a1.5 1.5 0 0 0-1.493-1.508" fill="#FFC715"/><path d="M26.456 32.01h-.942a1.5 1.5 0 0 0-1.492 1.509v2.097a1.5 1.5 0 0 0 1.492 1.508h.942a1.5 1.5 0 0 0 1.493-1.508v-2.097a1.5 1.5 0 0 0-1.493-1.508" fill="#2788E0"/><path d="M46.015 9.734H40.32a2.128 2.128 0 0 0-2.117 2.139v26.209c0 1.181.948 2.138 2.117 2.138h5.696a2.128 2.128 0 0 0 2.117-2.138V11.873c0-1.18-.948-2.139-2.117-2.139" fill="#4495FF"/><path d="M43.306 16.267h-.278c-.832 0-1.506.681-1.506 1.522v8.287c0 .84.674 1.522 1.506 1.522h.278c.832 0 1.507-.682 1.507-1.522v-8.287c0-.84-.675-1.522-1.507-1.522M38.491 14.32h9.641v-1.317h-9.641zM44.63 35.345h-2.926a.885.885 0 0 0-.88.89c0 .49.394.889.88.889h2.926c.486 0 .88-.399.88-.89a.885.885 0 0 0-.88-.89" fill="#2788E0"/></g><g><path d="M57.454 20.513c0 6.721-5.393 12.17-12.045 12.17-6.653 0-12.046-5.449-12.046-12.17 0-6.722 5.393-12.17 12.046-12.17 6.652 0 12.045 5.448 12.045 12.17" fill="#723A0F"/><path d="M54.404 30.097c0 8.917-7.155 16.146-15.981 16.146-8.827 0-15.981-7.229-15.981-16.146 0-8.918 7.154-16.147 15.98-16.147 8.827 0 15.982 7.23 15.982 16.147" fill="#97501A"/><path d="M59.207 33.164c0 9.205-7.386 16.668-16.497 16.668S26.213 42.37 26.213 33.164c0-9.205 7.386-16.668 16.497-16.668s16.497 7.463 16.497 16.668" fill="#97501A"/><path d="M18.978 39.274c0 3.437 2.758 6.224 6.16 6.224s6.16-2.787 6.16-6.224c0-3.437-2.758-6.224-6.16-6.224s-6.16 2.787-6.16 6.224" fill="#FD937E"/><path d="M46.177 14.896c2.135 2.184 1.88 5.937-.571 8.38-2.45 2.443-6.167 2.653-8.302.468l8.873-8.848z" fill="#97501A"/><path d="M46.177 14.896c2.135 2.184 1.88 5.937-.571 8.38-2.45 2.443-6.167 2.653-8.302.468l8.873-8.848z" stroke="#97501A" stroke-width="2.331" stroke-linecap="round" stroke-linejoin="round"/><path d="M45.893 28.854c-2.944-.762-4.637-4.11-3.783-7.48.854-3.37 3.933-5.484 6.876-4.722l-3.093 12.202z" fill="#97501A"/><path d="M45.893 28.854c-2.944-.762-4.637-4.11-3.783-7.48.854-3.37 3.933-5.484 6.876-4.722l-3.093 12.202z" stroke="#97501A" stroke-width="1.457" stroke-linecap="round" stroke-linejoin="round"/><path d="M50.643 39.274c0 3.437 2.758 6.224 6.16 6.224s6.16-2.787 6.16-6.224c0-3.437-2.758-6.224-6.16-6.224s-6.16 2.787-6.16 6.224" fill="#FD937E"/></g><g><path d="M40.969 56.194h-.557c-8.725 0-15.863-7.212-15.863-16.026v-5.773c0-8.815 7.138-16.027 15.863-16.027h.557c8.724 0 15.862 7.212 15.862 16.027v5.773c0 8.814-7.138 16.026-15.862 16.026" fill="#FFB5A1"/><path d="M47.443 38.114c-1.164 0-2.117-.963-2.117-2.139v-4.032c0-1.176.953-2.139 2.117-2.139 1.164 0 2.117.963 2.117 2.139v4.032c0 1.176-.953 2.139-2.117 2.139" fill="#E58D7F"/><path d="M48.72 38.43h-2.554a1.68 1.68 0 0 1-1.667-1.686c0-.926.75-1.684 1.667-1.684h2.554a1.68 1.68 0 0 1 1.667 1.684 1.68 1.68 0 0 1-1.667 1.685" fill="#FFB5A1"/><path d="M34.161 38.114c-1.164 0-2.116-.963-2.116-2.139v-4.032c0-1.176.952-2.139 2.116-2.139 1.165 0 2.117.963 2.117 2.139v4.032c0 1.176-.952 2.139-2.117 2.139" fill="#E58D7F"/><path d="M35.438 38.43h-2.554a1.68 1.68 0 0 1-1.667-1.686c0-.926.75-1.684 1.667-1.684h2.554a1.68 1.68 0 0 1 1.667 1.684 1.68 1.68 0 0 1-1.667 1.685" fill="#FFB5A1"/><path d="M28.047 41.484c0 .25.2.452.448.452a.45.45 0 0 0 .448-.452.45.45 0 0 0-.448-.453.45.45 0 0 0-.448.453M53.49 41.743c.2.147.481.102.627-.1a.455.455 0 0 0-.098-.632.445.445 0 0 0-.627.1.456.456 0 0 0 .099.632" fill="#FF9D8A"/><path d="M42.272 45.002h-2.94c-.992 0-1.803-.57-1.803-1.265v-7.31c0-.696.811-1.266 1.803-1.266h2.94c.992 0 1.803.57 1.803 1.266v7.31c0 .695-.811 1.265-1.803 1.265" fill="#FD937E"/><path d="M29.69 39.836c0 .36.29.653.646.653a.65.65 0 0 0 .646-.653.65.65 0 0 0-.646-.652.65.65 0 0 0-.646.652M27.203 37.96c0 .361.29.653.646.653a.65.65 0 0 0 .646-.652.65.65 0 0 0-.646-.653.65.65 0 0 0-.646.653M50.526 39.836c0 .36.29.653.646.653a.65.65 0 0 0 .646-.653.65.65 0 0 0-.646-.652.65.65 0 0 0-.646.652M52.762 38.58c0 .36.29.652.646.652a.649.649 0 0 0 .646-.652.65.65 0 0 0-.646-.652.65.65 0 0 0-.646.652" fill="#FF9D8A"/><path d="M37.97 35.637h5.663" stroke="#97501A" stroke-width="2"/><path d="M55.538 32.79c1.072.556 2.248.154 2.876-.702-.542-8.024-6.366-14.582-13.99-16.145.578 7.358 4.931 13.638 11.114 16.847" fill="#97501A"/><path d="M47.589 18.24a14.729 14.729 0 0 0-9.166-3.192c-8.226 0-14.894 6.738-14.894 15.049 0 .743.055 1.473.158 2.187 9.621-1.554 18.05-6.704 23.902-14.044" fill="#97501A"/><g><path d="M39.892 35.663c0 3.87-3.112 7.015-6.959 7.015-3.847 0-6.959-3.144-6.959-7.015 0-3.871 3.112-7.016 6.96-7.016 3.846 0 6.958 3.145 6.958 7.016z" stroke="#97501A" stroke-width="3" fill="#FFB5A1"/><path d="M28.666 39.103a5.528 5.528 0 0 1-1.192-3.44c0-3.046 2.444-5.516 5.46-5.516 1.307 0 2.508.465 3.448 1.24l-7.716 7.716z" fill="#FFCBBD"/></g><g><path d="M55.892 35.663c0 3.87-3.112 7.015-6.959 7.015-3.847 0-6.959-3.144-6.959-7.015 0-3.871 3.112-7.016 6.96-7.016 3.846 0 6.958 3.145 6.958 7.016z" stroke="#97501A" stroke-width="3" fill="#FFB5A1"/><path d="M44.666 39.103a5.528 5.528 0 0 1-1.192-3.44c0-3.046 2.444-5.516 5.46-5.516 1.307 0 2.508.465 3.448 1.24l-7.716 7.716z" fill="#FFCBBD"/></g></g></g><path d="M63.654 58.58c-.978.277-2.27.42-4.282.42H22.539c-2.303 0-3.663-.188-4.69-.548l1.88-11.823L19.65 42l19.613 8.047a4 4 0 0 0 3.024.005L62.106 42l.104 4.262 1.444 12.318z" fill="#F9F9F9" fill-rule="nonzero"/><path d="M68.654 59.58c-1.192.277-2.766.42-5.217.42H18.563c-2.806 0-4.463-.188-5.713-.548l2.29-11.823L15.041 43l24.466 8.239a4 4 0 0 0 2.542.004L66.767 43l.128 4.262 1.76 12.318z" fill="#FFF" fill-rule="nonzero"/><path d="M73 57.233a9.024 9.024 0 0 1-2.013 1.458C69.39 59.545 67.805 60 63.437 60H18.563c-4.368 0-5.953-.455-7.55-1.309A9.024 9.024 0 0 1 9 57.233v-7.807a4 4 0 0 1 5.183-3.821l25.924 8.025a4 4 0 0 0 2.387-.006l25.303-7.982A4 4 0 0 1 73 49.456v7.777z" fill="#1CB0F6" fill-rule="nonzero"/><path d="M41 60v-6.201a4 4 0 0 0 1.494-.175l25.303-7.982A4 4 0 0 1 73 49.456v7.777a9.024 9.024 0 0 1-2.013 1.458C69.39 59.545 67.805 60 63.437 60H41z" fill="#039CE5" fill-rule="nonzero"/></g></g></svg></svg>